<svg width="45" height="45" viewBox="0 0 45 45" fill="none" xmlns="http://www.w3.org/2000/svg">
<path d="M22.5 45.0001C34.9264 45.0001 45 34.9265 45 22.5001C45 10.0737 34.9264 6.10352e-05 22.5 6.10352e-05C10.0736 6.10352e-05 0 10.0737 0 22.5001C0 34.9265 10.0736 45.0001 22.5 45.0001Z" fill="#F2EDDD"/>
<path d="M22.4999 44.1347C34.4484 44.1347 44.1346 34.4485 44.1346 22.5C44.1346 10.5515 34.4484 0.865356 22.4999 0.865356C10.5514 0.865356 0.865234 10.5515 0.865234 22.5C0.865234 34.4485 10.5514 44.1347 22.4999 44.1347Z" stroke="#F2EDDD" stroke-opacity="0.1" stroke-width="1.73077"/>
<path fill-rule="evenodd" clip-rule="evenodd" d="M27.253 12.5992C26.8867 12.5925 26.5861 12.6597 26.5117 12.6829C26.2798 12.7264 26.073 12.8027 25.9667 12.8494C25.8594 12.8893 25.6333 13.0157 25.467 13.1288C25.3008 13.242 25.0476 13.455 24.9017 13.6014C24.7548 13.7479 24.5354 14.0075 24.4156 14.1805C24.2957 14.3603 24.2339 14.4426 24.2339 14.4426L24.1024 14.6664C24.1024 14.6664 24.0106 14.842 23.9565 14.9793C23.9227 15.0924 23.8434 15.2056 23.77 15.2388C23.6965 15.2655 23.2443 15.4119 22.7717 15.565C22.2991 15.7114 21.8459 15.8645 21.7734 15.8978C21.6999 15.9311 21.4139 16.0309 21.1404 16.1242C20.8678 16.2107 20.4156 16.3704 20.1421 16.4703C19.8695 16.5634 19.5158 16.7069 19.5158 16.7069L18.9108 16.9628L18.2527 17.2582C18.2527 17.2582 17.9125 17.4287 17.5791 17.6018C17.2467 17.7682 16.8475 17.9878 16.6813 18.081C16.5141 18.1742 16.115 18.4338 15.7825 18.6535C15.4501 18.8731 15.1698 19.0728 15.1505 19.0927C15.1302 19.1127 14.9968 19.2126 14.8509 19.3257C14.704 19.4322 14.2053 19.8981 13.7453 20.3574C13.2795 20.8167 12.7538 21.3958 12.5605 21.6554C12.3749 21.915 12.201 22.1479 12.1749 22.1879C12.1411 22.2211 12.0154 22.4341 11.8821 22.6538C11.7487 22.8735 11.5361 23.2595 11.4095 23.519C11.2829 23.7786 11.1167 24.1514 11.0364 24.3511C10.9572 24.5508 10.8432 24.8969 10.7832 25.1165C10.7233 25.3362 10.6508 25.649 10.6103 25.8154C10.5774 25.9819 10.504 26.3812 10.4576 26.714C10.4044 27.0469 10.329 27.6601 10.3155 28.0239C10.301 28.3878 10.3087 28.5612 10.3445 28.9076C10.3657 29.1125 10.5262 29.5222 10.7291 29.6894C10.9891 29.904 11.223 30.1089 11.8888 30.1089C12.5605 30.1089 12.7402 30.0818 13.3733 29.8885C13.7656 29.7754 13.583 29.8421 14.2179 29.6759C14.2749 29.6614 14.3484 29.643 14.3484 29.643C14.3484 29.643 14.5977 29.5841 14.648 29.5764C15.0142 29.5164 14.8644 29.5348 15.1167 29.5164C15.4288 29.4923 15.769 29.4565 15.9159 29.443C16.0618 29.4295 16.5876 29.4498 17.0804 29.4826C17.5733 29.5164 18.2189 29.5899 18.5117 29.6498C18.8045 29.703 19.224 29.7957 19.4433 29.8489C19.6627 29.902 20.0957 30.0422 20.4088 30.1485C20.7209 30.2615 21.0012 30.3553 21.0408 30.3679C21.0805 30.3746 21.64 30.6143 21.64 30.6143C21.64 30.6143 22.1126 30.8008 22.4383 30.9004C22.7649 31.0076 23.3235 31.1333 23.6695 31.1874C24.1827 31.2666 24.4088 31.2734 24.8679 31.2067C25.181 31.1671 25.4603 31.1072 25.4999 31.0869L25.6864 31.027C25.7463 31.0134 25.8594 30.9738 25.9328 30.9409C26.0063 30.9071 26.0594 30.8211 26.0527 30.7612C26.0391 30.6742 25.7937 30.5882 24.9548 30.3746C24.0493 30.1485 23.8492 30.075 23.6695 29.9088C23.5564 29.8025 23.3834 29.5899 23.2839 29.443C23.1843 29.2961 23.0346 29.1163 22.9476 29.01C22.8258 28.8322 22.8036 28.7829 22.6915 28.631C22.5794 28.4795 22.4653 28.3314 22.3387 28.1451C22.2121 27.9587 22.0188 27.6924 21.9193 27.5593C21.813 27.4262 21.5869 27.1533 21.4197 26.9536C21.2467 26.7539 21.0544 26.5476 20.9809 26.4877C20.9142 26.4278 20.7548 26.2813 20.6146 26.1682C20.4813 26.0483 20.2957 25.9485 20.2957 25.9485L20.0754 25.8154L19.8782 25.7244C19.8782 25.7244 19.6695 25.6424 19.4037 25.5559C18.9572 25.416 18.8239 25.4028 18.0787 25.436C17.6197 25.456 17.1007 25.5026 16.9142 25.5359C16.7345 25.5758 16.461 25.6357 16.315 25.669C16.1681 25.7089 15.7487 25.8288 15.3834 25.9353C15.0171 26.0483 14.5842 26.1882 14.418 26.2414C14.2517 26.3013 14.1116 26.3346 14.1048 26.3146C14.0913 26.2947 14.2711 26.1483 14.5049 25.9885C14.7311 25.8288 15.0838 25.6158 15.2829 25.5159C15.4829 25.416 15.9091 25.243 16.2348 25.1432C16.5547 25.0367 17.1539 24.9035 17.5665 24.8436C18.2053 24.7438 18.3986 24.7438 18.9108 24.817C19.2433 24.8636 19.6762 24.9568 19.8763 25.0367C20.0754 25.1099 20.4213 25.2763 20.6417 25.4094C20.8611 25.5425 21.2273 25.842 21.4535 26.0817C21.6796 26.3213 22.0855 26.8138 22.359 27.1799C22.6248 27.546 23.0307 28.1117 23.251 28.4446C23.4772 28.7771 23.7768 29.1898 23.9159 29.3763C24.0561 29.5561 24.1324 29.6459 24.2339 29.7155C24.3257 29.7522 24.4001 29.7629 24.4001 29.7629C24.4533 29.7822 24.7412 29.8421 25.0341 29.902C25.3269 29.9552 25.6603 30.0219 25.7666 30.0422C25.8729 30.0683 26.0991 30.1552 26.2663 30.2287C26.5388 30.3611 26.6722 30.3746 27.8628 30.3746C28.8814 30.3746 29.268 30.3485 29.6603 30.2548C29.9329 30.1881 30.3262 30.0625 30.5253 29.962C30.8519 29.8093 30.878 29.7822 30.7592 29.7223C30.6857 29.6827 30.2798 29.6295 29.8604 29.6025C29.441 29.5696 28.6688 29.5232 28.1498 29.4961C27.3177 29.4498 27.1911 29.4295 27.0974 29.3096C27.0442 29.2371 26.5784 28.3514 26.073 27.3463C25.5666 26.3413 25.1143 25.4427 25.0611 25.3495C25.008 25.2563 24.9548 25.1698 24.9345 25.1499C24.9142 25.1299 24.8679 25.0566 24.8282 24.9834C24.7886 24.9102 24.6881 24.7172 24.5953 24.5508C24.5083 24.3844 24.4223 24.2379 24.402 24.2179C24.3817 24.198 24.3218 24.1048 24.2687 23.9983C24.2155 23.8984 24.1459 23.8022 24.1459 23.8022L24.0918 23.7156C24.0918 23.7156 24.0425 23.6416 23.9498 23.519C23.857 23.3966 23.8164 23.3394 23.7632 23.2728C23.7207 23.2192 23.5767 23.0265 23.424 22.8601C23.2636 22.6937 23.137 22.534 23.137 22.5007C23.137 22.474 23.1834 22.4973 23.2404 22.5307C23.3081 22.5716 23.3351 22.5924 23.3834 22.6205C23.4318 22.6485 23.6502 22.7935 23.8763 22.9999C24.0957 23.2129 24.4156 23.599 24.9017 24.3378L25.1539 23.8253C25.294 23.539 25.5405 23.1796 25.7202 22.9999C25.8932 22.8202 26.2257 22.554 26.4653 22.3942C26.705 22.2411 27.2713 21.9216 27.7304 21.6886C28.1894 21.4623 28.5886 21.2493 28.6292 21.2227C28.6688 21.1895 28.9345 21.043 29.2274 20.8899C29.5202 20.7301 30.0469 20.4173 30.3929 20.191C30.7389 19.9581 31.2182 19.5786 31.4579 19.3456C31.6975 19.1061 31.9498 18.8398 32.03 18.7533C32.1034 18.6667 32.2561 18.4138 32.3692 18.1941C32.4823 17.9745 32.6021 17.6883 32.6495 17.5618C32.6891 17.4354 32.7219 17.2557 32.7219 17.1625C32.7219 17.0693 32.6823 16.8762 32.6427 16.7298C32.6021 16.5834 32.4755 16.3371 32.3692 16.184C32.2561 16.0242 32.1228 15.8712 32.0629 15.8379C31.9662 15.7592 31.9469 15.7379 31.8647 15.6804C31.799 15.6344 31.684 15.5583 31.6038 15.5118C31.5246 15.4718 31.4279 15.4282 31.4279 15.4282L31.2578 15.3653L31.0578 15.2988C31.0578 15.2988 30.9892 15.2617 30.9447 15.2388C30.8268 15.1781 30.7389 15.139 30.6393 15.0924C30.5388 15.0392 30.448 14.9011 30.3726 14.8128C30.2953 14.7232 30.246 14.6332 30.246 14.6332C30.246 14.6332 30.1 14.3603 29.987 14.1805C29.8671 14.0075 29.5801 13.6814 29.3472 13.4484C29.1075 13.2221 28.8215 13.0357 28.8215 13.0357L28.7287 12.9691L28.5045 12.8444C28.5045 12.8444 28.2349 12.7302 28.0967 12.7162C27.9894 12.6829 27.6193 12.6058 27.253 12.5992ZM25.6004 24.2179C25.5801 24.2179 25.5202 24.3111 25.467 24.4309C25.4139 24.5508 25.3743 24.7504 25.3675 24.8769C25.3675 25.0034 25.4535 25.1299 25.4535 25.1299C25.4535 25.1299 25.4873 25.2003 25.5144 25.2497C25.5637 25.3392 25.8265 25.8354 25.8932 25.9819C25.9599 26.1283 26.1329 26.4877 26.2856 26.7806C26.4325 27.0734 26.7185 27.6259 26.9176 28.0119C27.1177 28.398 27.3177 28.7704 27.3574 28.8506C27.424 28.9839 27.5236 28.9975 28.662 29.07C29.5801 29.1299 30.0198 29.1299 30.3929 29.0767C30.6654 29.0371 31.052 28.9434 31.2443 28.8709C31.4308 28.8042 31.5903 28.7104 31.5903 28.6776C31.5903 28.6376 31.0578 28.6043 30.1667 28.591C28.835 28.5778 28.7219 28.5711 28.5489 28.4379C28.4494 28.3648 28.2097 28.0785 28.0165 27.8056C27.8299 27.5327 27.57 27.1267 27.4501 26.8937C27.3303 26.6674 27.1844 26.481 27.1844 26.481C27.1844 26.481 26.0527 24.7638 25.9067 24.5707C25.7531 24.3777 25.6197 24.2246 25.6004 24.2179Z" fill="url(#paint0_linear_111_479)"/>
<path d="M27.8383 14.7605C27.7659 14.7235 27.6509 14.6784 27.5784 14.66C27.5059 14.644 27.3967 14.6282 27.3329 14.6282C27.2691 14.6256 27.1416 14.644 27.0497 14.6653C26.9599 14.6865 26.8304 14.7367 26.7608 14.7764C26.6941 14.8135 26.5955 14.8903 26.5414 14.9405C26.4863 14.9935 26.4022 15.1125 26.353 15.2078C26.2785 15.3508 26.264 15.4117 26.2669 15.5785C26.2669 15.7478 26.2814 15.8034 26.3559 15.9491C26.4051 16.0443 26.4979 16.166 26.5588 16.2242C26.6187 16.2799 26.7521 16.3645 26.8565 16.4096C27.0237 16.4837 27.0729 16.4916 27.3039 16.4916C27.5349 16.4916 27.5842 16.4837 27.7369 16.4122C27.8325 16.3699 27.9659 16.2852 28.0316 16.2217C28.1012 16.1581 28.194 16.0337 28.2433 15.9411C28.3148 15.8034 28.3293 15.7453 28.3293 15.5705C28.3293 15.4302 28.3119 15.3244 28.2723 15.2264C28.2404 15.1523 28.1592 15.0305 28.0925 14.9591C28.0229 14.8876 27.9108 14.8003 27.8383 14.7605Z" fill="#191919"/>
<defs>
<linearGradient id="paint0_linear_111_479" x1="77.4092" y1="5.06717" x2="3.08136" y2="18.3902" gradientUnits="userSpaceOnUse">
<stop offset="0.0905155" stop-color="#FBBF65"/>
<stop offset="1" stop-color="#FF6810"/>
</linearGradient>
</defs>
</svg>
