<svg width="70" height="70" viewBox="0 0 70 70" fill="none" xmlns="http://www.w3.org/2000/svg">
<path fill-rule="evenodd" clip-rule="evenodd" d="M42.3931 19.5994C41.8236 19.589 41.3558 19.6935 41.2408 19.7296C40.8787 19.7973 40.5574 19.916 40.3917 19.9885C40.2261 20.0506 39.874 20.2473 39.6152 20.4233C39.3563 20.5993 38.9629 20.9307 38.7351 21.1584C38.5073 21.3862 38.1656 21.79 37.9793 22.0592C37.7929 22.3388 37.6968 22.4669 37.6968 22.4669L37.4926 22.8151C37.4926 22.8151 37.3497 23.0882 37.2649 23.3017C37.2131 23.4777 37.0888 23.6537 36.9749 23.7055C36.861 23.7469 36.157 23.9747 35.4219 24.2129C34.6867 24.4406 33.9827 24.6788 33.8688 24.7306C33.7549 24.7823 33.3096 24.9376 32.8851 25.0826C32.4606 25.2172 31.7566 25.4657 31.332 25.621C30.9075 25.7659 30.3581 25.9892 30.3581 25.9892L29.4166 26.3872L28.3929 26.8467C28.3929 26.8467 27.8635 27.112 27.3458 27.3812C26.8281 27.64 26.2068 27.9817 25.948 28.1266C25.6892 28.2716 25.0679 28.6754 24.5502 29.0171C24.0325 29.3588 23.5977 29.6694 23.5666 29.7004C23.5355 29.7315 23.3285 29.8868 23.1007 30.0628C22.8729 30.2285 22.0963 30.9533 21.3819 31.6677C20.6571 32.3821 19.8392 33.2829 19.5389 33.6867C19.249 34.0905 18.9798 34.4529 18.9384 34.515C18.8866 34.5668 18.6899 34.8981 18.4828 35.2398C18.2757 35.5815 17.9444 36.182 17.7477 36.5858C17.551 36.9896 17.2921 37.5694 17.1679 37.8801C17.0436 38.1907 16.8676 38.7291 16.7744 39.0708C16.6812 39.4124 16.5673 39.8991 16.5052 40.1579C16.4534 40.4168 16.3395 41.038 16.2671 41.5557C16.1842 42.0734 16.0675 43.0274 16.0454 43.5934C16.0232 44.1593 16.0351 44.4292 16.0914 44.9673C16.1248 45.2872 16.3743 45.9241 16.6894 46.1841C17.0939 46.5179 17.4578 46.8362 18.4932 46.8362C19.5389 46.8362 19.8185 46.7948 20.8021 46.4945C21.413 46.3185 21.1286 46.4221 22.117 46.1632C22.2045 46.1403 22.3193 46.1114 22.3193 46.1114C22.3193 46.1114 22.7066 46.0207 22.7852 46.0079C23.3547 45.9147 23.1229 45.9441 23.5148 45.9147C24.0007 45.8782 24.5295 45.8215 24.7573 45.8008C24.9851 45.7801 25.803 45.8112 26.5692 45.8629C27.3354 45.9147 28.3398 46.0286 28.7953 46.1218C29.2509 46.2046 29.9032 46.3496 30.2449 46.4324C30.5866 46.5152 31.2596 46.7327 31.7462 46.8983C32.2328 47.0744 32.6677 47.2193 32.7298 47.24C32.792 47.2504 33.6617 47.6231 33.6617 47.6231C33.6617 47.6231 34.3968 47.913 34.9042 48.0683C35.4115 48.234 36.2812 48.4307 36.8196 48.5135C37.6169 48.6378 37.9689 48.6481 38.6833 48.5446C39.17 48.4825 39.6048 48.3893 39.667 48.3582L39.9569 48.2651C40.0501 48.2443 40.2261 48.1822 40.34 48.1305C40.4539 48.0787 40.5367 47.9441 40.5263 47.8509C40.5056 47.7163 40.1225 47.5817 38.8179 47.2504C37.4098 46.8983 37.0992 46.7844 36.8196 46.5256C36.6436 46.3599 36.3744 46.0286 36.2191 45.8008C36.0638 45.573 35.8309 45.2931 35.6963 45.1278C35.5062 44.8512 35.4721 44.7733 35.2976 44.5376C35.1231 44.302 34.9456 44.0717 34.7488 43.7818C34.5521 43.4919 34.2519 43.0777 34.0965 42.8707C33.9309 42.6636 33.5789 42.2391 33.32 41.9284C33.0508 41.6178 32.7505 41.2969 32.6366 41.2037C32.5331 41.1105 32.2846 40.8827 32.0672 40.7067C31.8601 40.5203 31.5702 40.365 31.5702 40.365L31.2285 40.1579L30.9212 40.0163C30.9212 40.0163 30.5969 39.8887 30.1828 39.7541C29.489 39.5367 29.282 39.516 28.1223 39.5677C27.4079 39.5988 26.6003 39.6713 26.3104 39.7231C26.0308 39.7852 25.6063 39.8784 25.3785 39.9301C25.1507 39.9923 24.4984 40.1786 23.929 40.3443C23.3595 40.5203 22.6865 40.7377 22.4277 40.8206C22.1688 40.9138 21.9514 40.9655 21.941 40.9345C21.9203 40.9034 22.1999 40.6756 22.5623 40.4271C22.9143 40.1786 23.4631 39.8473 23.7737 39.692C24.0843 39.5367 24.7469 39.2675 25.2543 39.1122C25.7513 38.9465 26.6831 38.7394 27.3251 38.6462C28.3191 38.4909 28.6193 38.4909 29.4166 38.6048C29.9343 38.6773 30.6073 38.8223 30.9179 38.9465C31.2285 39.0604 31.7669 39.3192 32.1086 39.5263C32.4503 39.7334 33.0197 40.1993 33.3718 40.5721C33.7238 40.9448 34.3554 41.711 34.7799 42.2805C35.1941 42.8499 35.8257 43.73 36.1673 44.2477C36.5194 44.7654 36.9853 45.4074 37.2027 45.6973C37.4202 45.9768 37.5392 46.1168 37.6962 46.2253C37.839 46.2814 37.955 46.2978 37.955 46.2978C38.0379 46.3289 38.4866 46.4221 38.9422 46.5152C39.3978 46.5981 39.9155 46.7016 40.0811 46.7327C40.2468 46.7741 40.5988 46.9087 40.8577 47.0226C41.2822 47.2297 41.4893 47.2504 43.3426 47.2504C44.9268 47.2504 45.5273 47.209 46.1382 47.064C46.5627 46.9605 47.1736 46.7637 47.4842 46.6084C47.9915 46.3703 48.0329 46.3289 47.8466 46.2357C47.7327 46.1736 47.1011 46.0907 46.4488 46.0493C45.7965 45.9975 44.5954 45.9251 43.7878 45.8836C42.4936 45.8112 42.2969 45.7801 42.1519 45.5937C42.0691 45.4798 41.3443 44.1028 40.5574 42.5393C39.7705 40.9759 39.0664 39.5781 38.9836 39.4331C38.9008 39.2882 38.8179 39.1536 38.7869 39.1225C38.7558 39.0915 38.6833 38.9776 38.6212 38.8637C38.5591 38.7498 38.4038 38.4495 38.2588 38.1907C38.1242 37.9318 37.9896 37.704 37.9586 37.673C37.9275 37.6419 37.8343 37.497 37.7515 37.3313C37.6687 37.176 37.5594 37.0262 37.5594 37.0262L37.4766 36.8916C37.4766 36.8916 37.3988 36.7763 37.2545 36.5858C37.1102 36.3953 37.0471 36.3063 36.9646 36.2027C36.8981 36.1194 36.6747 35.8196 36.4365 35.5608C36.188 35.3019 35.9913 35.0534 35.9913 35.0017C35.9913 34.9602 36.0635 34.9965 36.1513 35.0484C36.2573 35.112 36.2995 35.1444 36.3744 35.188C36.4494 35.2316 36.7886 35.4572 37.1406 35.7782C37.4823 36.1095 37.9793 36.7101 38.7351 37.8593L39.1286 37.0621C39.346 36.6169 39.7291 36.0578 40.0086 35.7782C40.2778 35.4986 40.7955 35.0845 41.1683 34.836C41.541 34.5979 42.4211 34.1009 43.1355 33.7385C43.85 33.3864 44.4712 33.0551 44.5333 33.0137C44.5954 32.9619 45.0096 32.7341 45.4652 32.496C45.9207 32.2475 46.7387 31.7609 47.2771 31.4088C47.8155 31.0465 48.561 30.4563 48.9337 30.0939C49.3065 29.7212 49.6999 29.307 49.8242 29.1724C49.9381 29.0378 50.1762 28.6443 50.3522 28.3027C50.5282 27.961 50.7146 27.5158 50.7871 27.319C50.8492 27.1223 50.901 26.8428 50.901 26.6978C50.901 26.5528 50.8389 26.2526 50.7767 26.0248C50.7146 25.797 50.5179 25.4139 50.3522 25.1758C50.1762 24.9273 49.9691 24.6891 49.8759 24.6374C49.7248 24.5149 49.6943 24.4819 49.5665 24.3923C49.4644 24.3207 49.2858 24.2025 49.1615 24.13C49.0373 24.0679 48.8877 24 48.8877 24L48.6231 23.9022L48.3125 23.7987C48.3125 23.7987 48.2056 23.7411 48.1365 23.7055C47.9532 23.6111 47.8155 23.5502 47.6602 23.4777C47.5049 23.3949 47.3639 23.1801 47.246 23.0429C47.1263 22.9033 47.0493 22.7633 47.0493 22.7633C47.0493 22.7633 46.8215 22.3388 46.6455 22.0592C46.4591 21.79 46.0139 21.2827 45.6515 20.9203C45.2788 20.5683 44.8336 20.2784 44.8336 20.2784L44.6886 20.1748L44.3405 19.9808C44.3405 19.9808 43.9212 19.8031 43.705 19.7814C43.5393 19.7296 42.9625 19.6097 42.3931 19.5994ZM39.8223 37.673C39.7912 37.673 39.698 37.8179 39.6152 38.0043C39.5324 38.1907 39.4702 38.5013 39.4599 38.698C39.4599 38.8947 39.5945 39.0915 39.5945 39.0915C39.5945 39.0915 39.6473 39.201 39.6892 39.2778C39.7651 39.4171 40.1743 40.189 40.2778 40.4168C40.3814 40.6446 40.6506 41.2037 40.8887 41.6592C41.1165 42.1148 41.5617 42.9742 41.8724 43.5747C42.183 44.1752 42.4936 44.7551 42.5557 44.8793C42.6593 45.0864 42.8146 45.1071 44.5851 45.221C46.0139 45.3142 46.6973 45.3142 47.2771 45.2313C47.7016 45.1692 48.3021 45.0243 48.6024 44.9104C48.8923 44.8068 49.1408 44.6619 49.1408 44.6101C49.1408 44.548 48.3125 44.4962 46.9251 44.4755C44.8543 44.4548 44.6783 44.4444 44.4091 44.2374C44.2538 44.1235 43.881 43.6783 43.5808 43.2537C43.2908 42.8292 42.887 42.1976 42.7007 41.8353C42.5143 41.4832 42.2865 41.1933 42.2865 41.1933C42.2865 41.1933 40.5263 38.522 40.2986 38.2217C40.0604 37.9215 39.8533 37.6833 39.8223 37.673Z" fill="url(#paint0_linear_25_392)"/>
<path d="M43.3042 22.9645C43.1919 22.9069 43.0121 22.8369 42.8997 22.8081C42.7874 22.7833 42.6165 22.7587 42.5177 22.7587C42.4188 22.7546 42.221 22.7833 42.0772 22.8164C41.9378 22.8493 41.7356 22.9275 41.6277 22.9893C41.5244 23.047 41.3716 23.1663 41.2862 23.2445C41.2007 23.3269 41.0704 23.5122 40.994 23.6604C40.8772 23.8827 40.8547 23.9775 40.8592 24.2368C40.8592 24.5003 40.8816 24.5868 40.9985 24.8133C41.0749 24.9615 41.2188 25.151 41.3131 25.2415C41.4075 25.328 41.6143 25.4597 41.7761 25.5297C42.0367 25.6451 42.1131 25.6574 42.4727 25.6574C42.8323 25.6574 42.9087 25.6451 43.147 25.5339C43.2952 25.468 43.502 25.3362 43.6054 25.2374C43.7132 25.1386 43.8571 24.945 43.9336 24.8009C44.0459 24.5868 44.0684 24.4963 44.0684 24.2245C44.0684 24.0062 44.0413 23.8416 43.9785 23.6892C43.929 23.574 43.8032 23.3845 43.6998 23.2734C43.5919 23.1622 43.4166 23.0263 43.3042 22.9645Z" fill="#191919"/>
<defs>
<linearGradient id="paint0_linear_25_392" x1="120.415" y1="7.88297" x2="4.79297" y2="28.6076" gradientUnits="userSpaceOnUse">
<stop offset="0.0905155" stop-color="#FBBF65"/>
<stop offset="1" stop-color="#FF6810"/>
</linearGradient>
</defs>
</svg>
