<svg width="45" height="45" viewBox="0 0 45 45" fill="none" xmlns="http://www.w3.org/2000/svg">
<path d="M22.5 45.0001C34.9264 45.0001 45 34.9265 45 22.5001C45 10.0737 34.9264 6.10352e-05 22.5 6.10352e-05C10.0736 6.10352e-05 0 10.0737 0 22.5001C0 34.9265 10.0736 45.0001 22.5 45.0001Z" fill="#F2EDDD"/>
<path d="M22.4999 44.1347C34.4484 44.1347 44.1346 34.4485 44.1346 22.5C44.1346 10.5515 34.4484 0.865356 22.4999 0.865356C10.5514 0.865356 0.865234 10.5515 0.865234 22.5C0.865234 34.4485 10.5514 44.1347 22.4999 44.1347Z" stroke="white" stroke-opacity="0.1" stroke-width="1.73077"/>
<path d="M24.5508 3.68877L24.7413 3.72424C26.1589 3.98537 27.5399 4.41668 28.8543 5.00861C31.2193 6.06568 33.4899 7.76339 35.0695 9.83018L35.2024 9.99708C35.8467 10.8127 36.4122 11.6876 36.8913 12.6101C37.8983 14.5227 38.5344 16.6085 38.7662 18.7575L38.7825 18.9051C39.185 23.0244 38.0896 27.1509 35.697 30.5283L35.6039 30.6568C35.2801 31.1149 34.9249 31.5498 34.541 31.9586C34.4273 32.0794 34.3196 32.2012 34.2118 32.3258C33.9785 32.5916 33.732 32.8429 33.481 33.0941L33.3304 33.2449C33.045 33.5319 32.7591 33.819 32.4727 34.105L31.398 35.1826L31.0953 35.487C30.3216 36.2621 29.5475 37.0371 28.7731 37.8122L28.6638 37.9214L26.907 39.6842C25.9684 40.6284 25.0285 41.5706 24.0873 42.5109C23.6545 42.9478 23.2205 43.3827 22.7851 43.8166C22.6267 43.9751 22.4679 44.1336 22.3083 44.292L22.1665 44.4351L22.0381 44.5617L21.9274 44.6738C21.8211 44.7453 21.8211 44.7453 21.7075 44.7405C21.5798 44.6786 21.4655 44.5926 21.3709 44.4863L21.238 44.3539C20.9964 44.1113 20.7548 43.8697 20.5131 43.6272L20.0539 43.17C19.4031 42.5216 18.7534 41.8721 18.1052 41.2208C16.8761 39.9934 15.6482 38.7641 14.4218 37.5329L12.4466 35.5575L12.2354 35.3469L12.1321 35.2415C11.4413 34.5496 10.7499 33.8576 10.0579 33.1666L9.5648 32.6728L9.42157 32.5298C9.14257 32.2476 8.87893 31.9509 8.63172 31.6397C8.51362 31.4947 8.39553 31.3536 8.27298 31.2116C7.48854 30.2335 6.82432 29.1637 6.29473 28.0272C5.62074 26.6603 5.14304 25.2051 4.87602 23.7046L4.84065 23.5127C4.51584 21.6865 4.48181 19.6742 4.81842 17.8481L4.85389 17.6517C5.58904 13.6288 7.71642 9.71807 11.0175 7.21417L11.1888 7.0784C13.4224 5.31275 16.1181 4.15681 18.9217 3.68877L19.0634 3.66365C20.8801 3.35333 22.737 3.36183 24.5508 3.68877Z" fill="#F2EDDD"/>
<path d="M23.8793 8.36082C24.0978 8.43465 24.2676 8.55276 24.4551 8.68564L24.5703 8.76237C24.7253 8.86568 24.8744 8.96909 25.0161 9.08718C25.2301 9.25988 25.3866 9.27911 25.6613 9.25399C26.0716 9.20228 26.4762 9.11221 26.8777 9.01625C27.0548 8.98232 27.2143 8.97643 27.3945 8.98233C27.291 10.0526 27.1494 11.1126 26.9382 12.1667L27.0564 12.211C27.2482 12.2922 27.4225 12.3926 27.5996 12.4989C27.8204 12.6334 28.0419 12.7667 28.2639 12.8989L28.4765 13.0289L28.5799 13.0909C28.6611 13.1396 28.7379 13.1943 28.8162 13.2474V13.3611L28.6981 13.426C27.3413 14.021 27.3413 14.021 26.3315 14.9614C26.2813 15.3747 26.3802 15.6331 26.5721 15.9948C26.6312 16.11 26.6902 16.2251 26.7464 16.3403L26.8408 16.5248C27.1183 17.0681 27.3782 17.6217 27.641 18.1724L27.8979 18.6965C28.2463 19.4154 28.4589 20.1373 28.6537 20.911C28.7463 21.254 28.8477 21.5947 28.9578 21.9326C29.0464 22.2189 29.1262 22.5039 29.1956 22.7947C29.3018 23.2287 29.4243 23.6583 29.5499 24.088L29.6118 24.2976C29.757 24.7999 29.9036 25.3019 30.0518 25.8035L30.1109 26.0027L30.164 26.1872C30.1787 26.2404 30.1935 26.2935 30.2112 26.3481C30.2395 26.4925 30.2288 26.6418 30.1803 26.7807C30.0798 26.9107 30.0798 26.9107 29.9528 27.0435C29.7672 27.2406 29.5894 27.445 29.42 27.6562C29.1837 27.9485 28.9327 28.2245 28.6758 28.4992C28.5253 28.6631 28.3777 28.8312 28.233 28.9994C28.0765 29.1772 27.917 29.3541 27.7576 29.528C27.6838 29.6121 27.6085 29.6962 27.5377 29.7851C27.2689 30.1146 26.9604 30.3398 26.6076 30.5766L26.4348 30.6945C26.2621 30.8124 26.0894 30.9303 25.9152 31.0453L25.7557 31.1535C25.5294 31.3053 25.3025 31.4551 25.0751 31.6049C24.9069 31.7083 24.9069 31.7083 24.8345 31.7856C24.71 31.7895 24.5856 31.7904 24.461 31.7885H24.2544L24.0963 31.7856C24.089 33.5232 24.089 33.5232 24.7503 35.0337C25.1711 35.3758 25.6982 35.5585 26.2163 35.6977C26.4467 35.7711 26.6208 35.8677 26.8245 35.9924V36.0504H20.4557C20.5473 35.8687 20.6432 35.6957 20.7481 35.5237L20.8411 35.37L20.912 35.2531L20.7082 35.2328C20.4875 35.2028 20.2701 35.1526 20.0586 35.083C20.283 34.8559 20.5133 34.6365 20.7481 34.4191L20.8544 34.3186L20.9577 34.2229L21.0507 34.1359C21.1393 34.0586 21.1393 34.0586 21.3091 33.9455C21.1795 33.3753 21.0387 32.809 20.8869 32.2446C20.7982 31.9112 20.7982 31.9112 20.7982 31.7856L20.658 31.8136C20.2963 31.8532 20.0572 31.8426 19.7619 31.63C19.5522 31.458 19.3484 31.2792 19.1507 31.0927C18.9843 30.9458 18.8119 30.8056 18.634 30.6723C18.3479 30.449 18.0644 30.2229 17.7837 29.9929C17.5017 29.7648 17.2182 29.5358 16.9303 29.3116C16.6048 29.0555 16.2819 28.7974 15.9619 28.5346C15.7179 28.3361 15.4718 28.1403 15.2237 27.947C14.9373 27.7228 14.6534 27.4954 14.3719 27.265C14.0147 26.9738 13.6545 26.6864 13.2913 26.4028L13.1215 26.2699L12.9561 26.146L12.838 26.0425V25.9289C13.1805 25.7311 13.4389 25.6647 13.8316 25.6587L13.9733 25.6528C14.0869 25.6484 14.2007 25.6469 14.3158 25.644L14.1401 25.5362C13.7607 25.2999 13.3813 25.0638 13.0077 24.8202L12.8395 24.7109L12.7228 24.6208V24.5072C13.2514 24.0983 13.9128 24.1957 14.5432 24.2223L14.2391 23.7218L13.9777 23.2908L13.3384 22.2426L13.2292 22.0654C13.1605 21.954 13.0917 21.8428 13.0225 21.7317L12.931 21.5797L12.8513 21.4497C12.7795 21.3173 12.7178 21.1796 12.6668 21.0378L12.4984 21.1471C12.0127 21.4616 11.5255 21.7745 11.0384 22.086L10.8789 22.1894C10.6073 22.3621 10.3327 22.5289 10.0508 22.6869C10.0729 22.3282 10.1186 21.9768 10.1836 21.624L10.2043 21.497C10.3032 20.9508 10.4051 20.4031 10.5069 19.8553L10.5837 19.439L10.6088 19.3062C10.6648 18.9976 10.718 18.6891 10.7667 18.3805C10.7904 18.252 10.7904 18.252 10.8464 18.0808H10.9454L11.4163 18.0823H11.5935C11.9508 18.0823 12.308 18.0779 12.6652 18.069C12.8912 18.0645 13.1156 18.0631 13.3414 18.0617C13.4565 18.0617 13.5703 18.0572 13.6839 18.0542C14.4398 18.0276 14.9166 18.103 15.4835 18.63L15.6932 18.8367C15.8438 18.9828 16.0062 19.1039 16.1745 19.2294C16.461 19.4472 16.7454 19.6676 17.0278 19.8908L17.2286 20.0487L17.7275 20.4415L17.9254 20.5979L18.0258 20.6762L18.4243 20.9877C18.6959 21.203 18.968 21.4175 19.2408 21.6313L19.44 21.7893C19.66 21.9635 19.8859 22.1274 20.1147 22.2897L20.1354 22.1141C20.1708 21.8941 20.2284 21.7081 20.3066 21.5L20.348 21.3892L20.4366 21.153L20.6698 20.5182L20.7171 20.3883C20.8603 19.9986 20.9976 19.6073 21.1304 19.2146C21.3578 18.5547 21.5881 17.8949 21.8169 17.2363L21.8686 17.0888C22.2092 16.116 22.5536 15.1445 22.902 14.1745L22.9507 14.0387L22.9936 13.9235C23.0467 13.6667 22.902 13.4865 22.7662 13.2769L22.6776 13.144L22.5846 13.0023C22.3721 12.6805 22.1565 12.3586 21.9424 12.0382L21.5364 11.4345C21.3404 11.1435 21.1435 10.8532 20.9459 10.5635L20.8647 10.4394C20.8401 10.4035 20.8154 10.3676 20.7909 10.3316C20.7407 10.2342 20.7407 10.2342 20.7407 10.063L20.847 10.0335C21.2285 9.93068 21.6099 9.82737 21.9911 9.72348L22.1388 9.67912C22.3868 9.60538 22.5595 9.53889 22.7351 9.33961C22.9153 9.14179 23.1042 8.96754 23.3065 8.79339C23.4099 8.70187 23.5014 8.60291 23.5944 8.4996C23.7538 8.35782 23.7524 8.35782 23.8793 8.36082Z" fill="#EA1B15"/>
<path d="M10.8464 18.0854C11.0364 18.0855 11.2263 18.0855 11.4163 18.0854H11.5935C11.9508 18.0854 12.308 18.0825 12.6652 18.0736C12.8912 18.0678 13.1156 18.0663 13.3414 18.0663C13.4565 18.0648 13.5703 18.0619 13.6839 18.0574C14.4398 18.0323 14.9166 18.1076 15.4835 18.6332L15.6932 18.8398C15.8438 18.9875 16.0062 19.1085 16.1745 19.2326C16.529 19.5021 16.8804 19.7757 17.2286 20.0534L17.7275 20.4446L17.9254 20.6011L18.0258 20.6793L18.324 20.9141L18.4243 20.9923L18.6222 21.1474L19.1359 21.5518L19.2438 21.636L19.4445 21.7924L19.5375 21.8663L19.6172 21.9283L19.7176 22.008L19.8918 22.1306C20.0351 22.2516 20.0556 22.2826 20.1 22.476V22.8052C20.1 22.9366 20.1 23.0666 20.097 23.1965V23.4769C20.0912 23.9961 20.0887 24.5152 20.0897 25.0345C20.0897 25.5379 20.0867 26.0398 20.0822 26.5433L20.0749 28.2588C20.0719 29.4353 20.066 30.6124 20.0586 31.7885L19.8431 31.6261L19.7206 31.5372C19.5581 31.4135 19.3958 31.2869 19.2334 31.1594L19.1316 31.0801C18.8303 30.8433 18.5336 30.5998 18.2368 30.3582C17.9928 30.1601 17.7468 29.9639 17.4987 29.7706C17.1731 29.5155 16.8503 29.2565 16.5302 28.9936C16.2868 28.7955 16.0412 28.5996 15.7935 28.4063C15.5067 28.1815 15.2222 27.9538 14.9403 27.7228C14.6572 27.4916 14.3717 27.2632 14.084 27.0378L13.9881 26.9625C13.7303 26.7594 13.472 26.5572 13.213 26.3558L13.0994 26.2672C13.01 26.1954 12.9223 26.1216 12.8365 26.0457V25.932C13.1805 25.7357 13.4389 25.6692 13.8316 25.6619L13.9733 25.6574C14.0869 25.653 14.2007 25.6501 14.3158 25.6485L14.1401 25.5393C13.7607 25.3032 13.3813 25.067 13.0077 24.8233L12.8395 24.7156L12.7228 24.624V24.5104C13.2514 24.1029 13.9128 24.2004 14.5432 24.2269L14.2391 23.7264L13.9777 23.2953C13.6621 22.7743 13.3442 22.2547 13.0241 21.7364L12.931 21.5843L12.8513 21.4529C12.7796 21.3209 12.7179 21.1838 12.6668 21.0425L12.4984 21.1502C12.0127 21.4662 11.5255 21.7792 11.0384 22.0907L10.8789 22.1925C10.6073 22.3652 10.3327 22.5336 10.0508 22.6915C10.0729 22.3328 10.1186 21.9799 10.1836 21.6286L10.2043 21.5016C10.3032 20.954 10.4051 20.4062 10.5069 19.86L10.5837 19.4436L10.6088 19.3108C10.6648 19.0007 10.718 18.6937 10.7667 18.3837C10.7904 18.2552 10.7904 18.2552 10.8464 18.0854Z" fill="#D30404"/>
<path d="M20.796 22.6279C20.8964 22.7313 20.8964 22.7313 20.9998 22.8685C21.1814 23.1048 21.3673 23.3351 21.5608 23.5624C21.7526 23.7868 21.9431 24.0142 22.1291 24.2445C22.3535 24.5205 22.5867 24.7908 22.8186 25.0609C23.0326 25.3118 23.2422 25.5643 23.449 25.8211C23.6334 26.0441 23.8224 26.2641 24.0129 26.4826C24.1871 26.6863 24.3598 26.893 24.5281 27.1026C24.7451 27.3684 24.974 27.6208 25.2072 27.8732C25.3844 28.0711 25.5497 28.2763 25.7166 28.483C25.8834 28.6853 26.0546 28.8834 26.2273 29.0806C26.5286 29.4266 26.8208 29.7764 27.1087 30.133C26.8945 30.3572 26.6529 30.5525 26.3898 30.7148L26.2657 30.796C26.0056 30.9699 25.7448 31.142 25.4833 31.313L25.2396 31.4725C25.0921 31.5682 24.9577 31.659 24.8337 31.7827C24.6609 31.7933 24.661 31.7933 24.4572 31.7895L24.2521 31.7866L24.094 31.7827C24.0882 33.5203 24.0882 33.5203 24.7496 35.0308C25.1703 35.373 25.6959 35.5556 26.2155 35.6948C26.4458 35.7682 26.6201 35.8649 26.8238 35.9905V36.0475H20.455C20.5451 35.8678 20.6426 35.6919 20.7472 35.5208L20.8403 35.3672L20.9097 35.2502L20.7074 35.2299C20.4868 35.2 20.2693 35.1497 20.0578 35.0801C20.2822 34.853 20.5126 34.6336 20.7472 34.4162L20.8535 34.3157L20.957 34.22L21.0499 34.133C21.1385 34.0557 21.1385 34.0557 21.3082 33.9427C21.1769 33.3725 21.0396 32.8052 20.886 32.2418C20.7975 31.9083 20.7975 31.9083 20.7975 31.7827H20.0578C20.0548 29.7484 20.0529 27.7138 20.0519 25.6795V24.9797C20.0509 24.6795 20.0504 24.3793 20.0504 24.0792C20.0475 22.9335 20.0475 22.9335 20.2114 22.7401L20.331 22.6766L20.4491 22.6088C20.5967 22.5615 20.6557 22.566 20.796 22.6279Z" fill="#F5362B"/>
<path d="M10.8464 18.0725C11.811 18.0678 12.7756 18.0727 13.74 18.0873L14.2656 18.0948H14.428C14.7897 18.1036 14.7897 18.1036 14.9757 18.235C15.0539 18.3575 15.0539 18.3575 15.0539 18.5272C15.1012 18.6248 15.1514 18.7192 15.2045 18.8137L15.302 18.9879L15.4098 19.1739C15.5563 19.4326 15.7035 19.6909 15.8511 19.9489L16.0283 20.2634L16.3634 20.8466L16.8034 21.6231C17.0854 22.125 17.3718 22.6225 17.6626 23.1186C18.0007 23.6944 18.3269 24.276 18.6487 24.8607L18.7521 25.0467L18.8422 25.2121C18.9013 25.3183 18.9677 25.4217 19.034 25.522V25.6918C18.5793 25.7184 18.1246 25.7391 17.6685 25.7508C17.4574 25.7567 17.2463 25.7656 17.0337 25.779C15.6608 25.8601 15.6608 25.8602 15.3123 25.5781C15.1204 25.342 15.0022 25.0939 14.8916 24.8104C14.803 24.5817 14.803 24.5817 14.5727 24.4695C14.4102 24.4546 14.2464 24.4645 14.0869 24.4989V24.4413L14.6568 24.3838V24.2716H13.2913V24.214H14.5432L14.2391 23.7135L13.9777 23.2825L13.3384 22.2343L13.2292 22.0572C13.1605 21.9458 13.0917 21.8346 13.0225 21.7235L12.931 21.5715L12.8513 21.4415C12.7795 21.3091 12.7178 21.1714 12.6668 21.0296L12.4984 21.1389C12.0127 21.4534 11.5255 21.7663 11.0384 22.0778L10.8789 22.1812C10.6073 22.3539 10.3327 22.5207 10.0508 22.6787C10.0729 22.32 10.1186 21.9686 10.1836 21.6157L10.2043 21.4887C10.3032 20.9425 10.4051 20.3949 10.5069 19.8471L10.5837 19.4308L10.6088 19.298C10.6648 18.9894 10.718 18.6808 10.7667 18.3722C10.7904 18.2438 10.7904 18.2438 10.8464 18.0725Z" fill="#F4120F"/>
<path d="M23.8803 8.36082C24.0974 8.43465 24.2671 8.55276 24.4547 8.68564L24.5698 8.76237C24.7248 8.86568 24.8739 8.96909 25.0156 9.08718C25.2297 9.25988 25.3862 9.27911 25.6622 9.25399C26.0712 9.20228 26.4757 9.11221 26.8773 9.01625C27.0544 8.98232 27.2139 8.97643 27.3939 8.98233L27.3718 9.1875L27.3586 9.32038L27.326 9.61418C27.2995 9.85037 27.2773 10.0822 27.2773 10.3198C27.2655 10.8646 27.2655 10.8646 27.0898 11.0551C26.8536 11.2426 26.585 11.3621 26.3133 11.4847L26.0992 11.5924L25.7007 11.7903C25.4792 11.9025 25.271 12.0295 25.0614 12.1638C24.9477 12.2228 24.9477 12.2228 24.7779 12.2228L24.7203 12.338C24.6222 12.3524 24.5238 12.3653 24.4251 12.3764C24.056 12.4162 24.056 12.4162 23.7711 12.6274C23.7121 12.7942 23.6766 12.9595 23.6411 13.1337C23.591 13.299 23.5378 13.4629 23.4847 13.6283L23.3562 14.0446L23.185 13.987V13.8734H23.0713L23.0048 13.7036C22.8927 13.4599 22.7568 13.228 22.599 13.0111C22.5694 12.9669 22.5399 12.9226 22.5073 12.8784C22.444 12.7842 22.3805 12.6902 22.3169 12.5964L21.5344 11.436C21.3704 11.1898 21.2057 10.9443 21.0399 10.6993L20.9484 10.5664C20.9208 10.5246 20.8932 10.4828 20.8657 10.4409L20.7919 10.3316C20.7402 10.2342 20.7402 10.2342 20.7402 10.063L20.8465 10.0335L21.3337 9.90352L21.502 9.85926L21.9921 9.72193C22.0394 9.70724 22.0881 9.6939 22.1398 9.68066C22.3863 9.60383 22.559 9.53889 22.7347 9.33817C22.9149 9.14179 23.1038 8.96754 23.3061 8.79484C23.4094 8.70187 23.5009 8.60291 23.594 8.4996C23.7533 8.35782 23.7533 8.35782 23.8803 8.36082Z" fill="#CF0101"/>
<path d="M21.4375 31.775H21.9955L22.6068 31.7779H23.0215L24.0402 31.7818L23.8778 31.9731L23.7863 32.0794C23.6771 32.2022 23.5604 32.3007 23.432 32.4003L23.3021 32.4988C23.1854 32.5771 23.1854 32.5771 23.0156 32.6342C23.1958 33.6537 23.1958 33.6537 23.7818 34.4539C24.0388 34.6037 24.3104 34.7178 24.5879 34.8289C24.9172 34.9671 25.2301 35.1381 25.5476 35.3053C25.7203 35.3981 25.896 35.487 26.0717 35.5769C26.327 35.7083 26.578 35.8427 26.8245 35.9905V36.0466H20.4572C20.5473 35.8649 20.6433 35.6938 20.748 35.5208L20.8411 35.3662L20.9119 35.2502L20.7097 35.228C20.4886 35.199 20.2705 35.1488 20.0586 35.0792C20.283 34.8521 20.5133 34.6317 20.748 34.4153L20.8543 34.3148L20.9577 34.2191L21.0507 34.1311C21.1392 34.0567 21.1392 34.0567 21.309 33.9427C21.1921 33.4073 21.0542 32.8767 20.8957 32.3529C20.8567 32.1838 20.8427 32.0098 20.8543 31.8378C21.0522 31.7934 21.2352 31.774 21.4375 31.775Z" fill="#EF2921"/>
<path d="M14.9395 18.3649C15.1934 18.4152 15.3529 18.5584 15.5477 18.7208L15.778 18.9083L15.8991 19.0071C16.0955 19.1651 16.2977 19.3171 16.4999 19.4707C16.8572 19.7424 17.2086 20.0214 17.554 20.3063C17.8257 20.5278 18.1003 20.7418 18.3808 20.9529C18.8192 21.2851 19.2474 21.6306 19.6726 21.9804C19.7788 22.069 19.7788 22.069 19.9206 22.1591C20.0579 22.289 20.0579 22.289 20.0918 22.4455L20.0904 22.6286V22.8352C20.0883 22.9853 20.0863 23.1354 20.0845 23.2855C20.0845 23.4863 20.08 23.6856 20.077 23.8864L20.0711 24.499C20.0682 24.8991 20.0638 25.3006 20.0564 25.7007H19.0348L18.8872 25.3996C18.7116 25.0538 18.5235 24.7145 18.3232 24.3824C18.0425 23.9061 17.768 23.4263 17.4994 22.943C17.2373 22.4723 16.9696 22.0048 16.6963 21.5405C16.4133 21.0583 16.1392 20.5711 15.874 20.079C15.6383 19.6453 15.3961 19.2152 15.1476 18.7887L15.065 18.6455L14.9912 18.5185C14.9395 18.4225 14.9395 18.4225 14.9395 18.3649Z" fill="#E50000"/>
<path d="M21.3105 33.9349C21.4227 34.049 21.4227 34.049 21.4655 34.2413C21.5556 34.5022 21.6383 34.5438 21.8789 34.6752L22.1062 34.8018L22.2391 34.8762C22.4163 34.9729 22.5934 35.0763 22.7706 35.1787L22.9728 35.2966L23.0747 35.3556C23.2939 35.4822 23.5134 35.6088 23.7331 35.7354C23.8158 35.7808 23.8985 35.8262 23.9826 35.8678C23.8786 35.4638 23.7553 35.0647 23.6136 34.6723C23.582 34.5786 23.5529 34.4848 23.5265 34.3901L23.584 34.2761C25.1873 35.1033 25.1873 35.1033 25.8443 35.4483C25.8856 35.4706 25.9254 35.4928 25.9683 35.5131C26.2561 35.6658 26.541 35.8233 26.8245 35.9818V36.0388H20.4572C20.5473 35.8571 20.6433 35.6861 20.748 35.5131L20.8411 35.3585L20.9119 35.2435L20.7097 35.2212C20.4886 35.1922 20.2706 35.143 20.0586 35.0734C20.283 34.8443 20.5133 34.625 20.748 34.4075L20.8543 34.307L20.9577 34.2113L21.0507 34.1263C21.1392 34.049 21.1392 34.049 21.309 33.934L21.3105 33.9349Z" fill="#EA0505"/>
<path d="M10.846 18.1297H10.9597C11.0424 18.2803 11.0734 18.3511 11.0734 18.5284H11.1871V18.6981H11.3007C11.3893 18.8324 11.4675 18.9683 11.5458 19.107C11.7156 19.4052 11.8883 19.6975 12.0728 19.9869L12.1762 20.1493L12.3799 20.4637L12.4729 20.6099L12.5571 20.7398C12.6088 20.8594 12.6088 20.8594 12.5984 20.9805C12.5202 21.1576 12.3578 21.2373 12.1998 21.3347L12.0891 21.4086L11.8382 21.5666L11.3775 21.8618C10.4577 22.4523 10.4577 22.4523 10.0488 22.6783C10.0724 22.321 10.1182 21.9696 10.1817 21.6153L10.2038 21.4898C10.3027 20.9421 10.4047 20.3943 10.5065 19.8481L10.5833 19.4318L10.6084 19.299C10.6644 18.989 10.7176 18.6789 10.7663 18.3673C10.79 18.2434 10.79 18.2434 10.846 18.1312V18.1297Z" fill="#C30202"/>
<path d="M13.9451 24.246C14.1822 24.2489 14.4195 24.2538 14.6567 24.2607L14.7083 24.3567C14.8854 24.6814 15.0789 24.9915 15.2841 25.3C15.4523 25.5555 15.4523 25.5555 15.4523 25.6809C14.7585 25.7296 14.3245 25.7016 13.7473 25.2824C13.6575 25.2239 13.5674 25.1658 13.477 25.1081C13.0932 24.8601 13.0932 24.8601 12.9235 24.7465L12.8053 24.6696L12.7227 24.6003V24.4866C13.1301 24.2312 13.4726 24.2312 13.9451 24.246Z" fill="#E40202"/>
<path d="M26.7677 12.5023H26.8252L26.8814 13.2405L28.7578 13.2981C28.5703 13.4855 28.4478 13.583 28.2219 13.7069L28.0388 13.8088L27.8484 13.9122L27.4793 14.1159L27.2947 14.2178C27.0025 14.3802 26.7146 14.55 26.4267 14.7198C26.344 14.4982 26.3928 14.3004 26.437 14.0775L26.4592 13.9565C26.499 13.7446 26.5398 13.5331 26.5817 13.3216L26.629 13.0781L26.6511 12.9629C26.6821 12.805 26.716 12.6543 26.7692 12.5009L26.7677 12.5023Z" fill="#D60505"/>
<path d="M21.3105 33.9349C21.4612 34.0857 21.4833 34.1949 21.5024 34.4046C21.4523 34.7477 21.222 35.0193 20.968 35.2435C20.7761 35.2937 20.6417 35.2522 20.4572 35.1855C20.38 35.1662 20.3027 35.1459 20.2254 35.1265L20.0586 35.0724C20.283 34.8443 20.5133 34.625 20.748 34.4075L20.8543 34.307L20.9577 34.2113L21.0507 34.1263C21.1392 34.049 21.1392 34.049 21.309 33.934L21.3105 33.9349Z" fill="#BA0505"/>
<path d="M15.889 25.667L16.2934 25.6759L17.2707 25.698V25.8117L17.067 25.822L16.3096 25.8575L15.9834 25.8722C15.2896 25.9018 15.2896 25.9018 14.5957 25.9578C14.2618 25.9858 13.9267 25.9957 13.5918 25.9874L13.4043 25.9859L12.9496 25.9829L12.8935 26.0966L12.8359 25.9253C13.1578 25.7453 13.3969 25.6626 13.766 25.6538L13.9033 25.6493C14.5647 25.6286 15.2275 25.6493 15.889 25.667Z" fill="#CA053D"/>
<path d="M26.1415 12.392C26.2334 12.4237 26.313 12.4836 26.3688 12.5632C26.4025 12.7245 26.3811 12.8923 26.3083 13.04C26.1976 13.1316 26.1976 13.1316 25.9983 13.1567C25.8005 13.1316 25.8005 13.1316 25.6897 13.0711C25.5938 12.8968 25.6085 12.7566 25.6307 12.5632C25.7518 12.352 25.9127 12.3654 26.1415 12.392Z" fill="#FEF8F8"/>
<path d="M27.6191 12.5656C28.0384 12.7664 28.4267 12.9937 28.8149 13.2477L28.7558 13.3613C28.5811 13.3514 28.4065 13.341 28.2318 13.3303C28.0259 13.3168 27.8212 13.2892 27.6191 13.2477V12.5656Z" fill="#FA3E32"/>
<path d="M13.5117 24.2703H13.7125L13.9235 24.2732H14.1347L14.6544 24.2762L14.7119 24.4475C14.1066 24.5257 13.5013 24.5094 12.8916 24.5035C13.0983 24.288 13.2134 24.2688 13.5117 24.2703Z" fill="#C30000"/>
<path d="M27.2803 12.389L27.6198 12.5028V13.2409H27.9048V13.2984L27.6567 13.3014L27.5165 13.3044C27.3939 13.2984 27.3939 13.2984 27.2803 13.2409V12.389Z" fill="#F8211A"/>
<path d="M26.9375 12.1656C27.2224 12.2792 27.2224 12.2792 27.28 12.3353C27.2829 12.4889 27.2844 12.641 27.2829 12.793V12.9259L27.28 13.2462L27.3922 13.3023L26.9936 13.2462C26.9759 12.889 26.9582 12.5331 26.9375 12.1656Z" fill="#F50807"/>
<path d="M28.0186 12.8009L28.3212 12.9633L28.491 13.0562C28.6446 13.1419 28.6446 13.1419 28.8159 13.2556L28.7583 13.3693L28.0201 13.2556V12.8009H28.0186Z" fill="#FC5D4A"/>
<path d="M26.7679 12.5023H26.8255L26.8403 12.8537C26.8403 12.9186 26.8448 12.9836 26.8462 13.0515C26.8211 13.2744 26.7502 13.3644 26.5967 13.5239C26.6248 13.1725 26.6735 12.8434 26.7679 12.5009V12.5023Z" fill="#C00505"/>
<path d="M28.416 13.0126L28.8146 13.2399L28.7555 13.3536L28.416 13.2399V13.0126Z" fill="#FD7863"/>
</svg>
