<svg width="70" height="70" viewBox="0 0 70 70" fill="none" xmlns="http://www.w3.org/2000/svg">
<path d="M38.1906 5.73758L38.4868 5.7927C40.6921 6.19898 42.8403 6.8698 44.8848 7.79064C48.5638 9.43492 52.0958 12.0759 54.553 15.2909L54.7597 15.5504C55.762 16.8192 56.6417 18.1802 57.3869 19.6152C58.9533 22.5903 59.9429 25.8348 60.3034 29.1777L60.3286 29.4074C60.9548 35.8152 59.2508 42.234 55.529 47.4876L55.3843 47.6874C54.8806 48.3999 54.3281 49.0767 53.7309 49.7129C53.554 49.9012 53.3864 50.0895 53.2188 50.2847C52.8559 50.698 52.4724 51.0884 52.082 51.4788L51.8478 51.7131C51.4038 52.1601 50.959 52.6064 50.5135 53.0519L48.8417 54.7284L48.3709 55.2014C47.1673 56.4076 45.9632 57.6133 44.7585 58.8184L44.5886 58.9883L41.8558 61.7303C40.3958 63.1983 38.9337 64.6643 37.4695 66.1281C36.7964 66.8069 36.1213 67.4836 35.444 68.1582C35.1977 68.4056 34.9504 68.6521 34.7022 68.8976L34.4818 69.1204L34.282 69.3179L34.1098 69.4924C33.9444 69.6026 33.9444 69.6026 33.7676 69.5958C33.569 69.4994 33.3912 69.3652 33.244 69.2008L33.0373 68.9941C32.6616 68.6173 32.2857 68.2407 31.9097 67.8642L31.1955 67.1523C30.1829 66.144 29.1725 65.1336 28.1642 64.121C26.252 62.211 24.3421 60.2988 22.4345 58.3844L19.3618 55.3117L19.0334 54.9833L18.8726 54.8202C17.798 53.743 16.7225 52.6667 15.6461 51.5914L14.879 50.8243L14.6563 50.6016C14.2222 50.1623 13.8121 49.7001 13.4277 49.2168C13.244 48.9918 13.0602 48.7713 12.8696 48.5508C11.6493 47.0288 10.6162 45.3657 9.79234 43.5973C8.74381 41.471 8.00083 39.2073 7.58543 36.8732L7.53031 36.5747C7.02509 33.734 6.97227 30.6039 7.49586 27.7631L7.55098 27.4577C8.69463 21.1998 12.0039 15.1164 17.1388 11.2216L17.4052 11.0103C20.8797 8.26371 25.0731 6.46557 29.4341 5.73758L29.6546 5.69854C32.4806 5.21581 35.3691 5.22902 38.1906 5.73758Z" fill="#FEFEFE"/>
<path d="M37.1459 13.0027C37.4858 13.1175 37.7499 13.3012 38.0415 13.5079L38.2206 13.6273C38.4618 13.7881 38.6937 13.9488 38.9142 14.1325C39.2472 14.4012 39.4906 14.4311 39.9177 14.392C40.5561 14.3117 41.1854 14.1716 41.81 14.0223C42.0856 13.9695 42.3336 13.9603 42.6138 13.9695C42.453 15.6344 42.2326 17.2833 41.9042 18.923L42.0879 18.9919C42.3864 19.1182 42.6574 19.2744 42.933 19.4397C43.2764 19.6489 43.6209 19.8563 43.9664 20.062L44.2971 20.2641L44.4579 20.3606C44.5842 20.4364 44.7036 20.5213 44.8253 20.604V20.7808L44.6416 20.8819C42.5311 21.8074 42.5311 21.8074 40.9603 23.2702C40.8823 23.9132 41.0361 24.3151 41.3347 24.8778C41.4265 25.0569 41.5184 25.236 41.6056 25.4151L41.7526 25.7022C42.1844 26.5473 42.5885 27.4085 42.9973 28.2651L43.3969 29.0803C43.9389 30.1987 44.2696 31.3217 44.5727 32.525C44.7167 33.0587 44.8744 33.5886 45.0458 34.1142C45.1836 34.5597 45.3076 35.0029 45.4155 35.4553C45.5808 36.1305 45.7715 36.7988 45.9667 37.4671L46.0631 37.7932C46.2888 38.5747 46.5169 39.3555 46.7475 40.1356L46.8393 40.4456L46.922 40.7327C46.945 40.8153 46.9679 40.898 46.9955 40.983C47.0395 41.2076 47.0228 41.4398 46.9473 41.6558C46.7911 41.8579 46.7911 41.8579 46.5936 42.0646C46.3048 42.3712 46.0282 42.6892 45.7646 43.0176C45.3971 43.4724 45.0067 43.9018 44.6071 44.3289C44.3729 44.5839 44.1432 44.8456 43.9182 45.1074C43.6748 45.383 43.4267 45.6586 43.1787 45.9296C43.0639 46.0605 42.9468 46.1914 42.8366 46.3292C42.4186 46.8413 41.9386 47.1926 41.3898 47.5601L41.1211 47.7438C40.8524 47.9275 40.5837 48.1112 40.3127 48.2904L40.0647 48.458C39.7126 48.6934 39.3597 48.9277 39.006 49.1607C38.7442 49.3215 38.7442 49.3215 38.6317 49.4409C38.4381 49.4466 38.2444 49.4481 38.0507 49.4455H37.7292L37.4835 49.4409C37.472 52.1439 37.472 52.1439 38.5008 54.4932C39.1553 55.0259 39.9751 55.3107 40.7812 55.5266C41.1395 55.6414 41.4104 55.7907 41.7274 55.9859V56.0754H31.8203C31.9627 55.793 32.112 55.5243 32.275 55.2556L32.4197 55.0168L32.53 54.8353L32.213 54.8032C31.8698 54.7571 31.5316 54.6795 31.2026 54.5712C31.5517 54.2176 31.9099 53.8754 32.275 53.5378L32.4404 53.3817L32.6011 53.2324L32.7458 53.0969C32.8836 52.9775 32.8836 52.9775 33.1477 52.8006C32.9461 51.9146 32.7271 51.0326 32.4909 50.1551C32.3531 49.6361 32.3531 49.6361 32.3531 49.4409L32.135 49.4845C31.5723 49.5465 31.2003 49.5305 30.741 49.1998C30.4149 48.9317 30.0978 48.653 29.7903 48.3639C29.5313 48.1349 29.2632 47.9166 28.9865 47.7094C28.5414 47.3625 28.1004 47.0103 27.6637 46.653C27.2251 46.297 26.7842 45.9411 26.3364 45.592C25.8298 45.1948 25.3276 44.7922 24.8299 44.3841C24.4503 44.0754 24.0676 43.7707 23.6816 43.4701C23.2361 43.1212 22.7944 42.7675 22.3566 42.4091C21.801 41.9561 21.2406 41.509 20.6755 41.0679L20.4114 40.8613L20.1542 40.6684L19.9705 40.5076V40.3308C20.5033 40.023 20.9052 39.9197 21.516 39.9105L21.7365 39.9013C21.9133 39.8944 22.0902 39.8921 22.2693 39.8876L21.996 39.7199C21.4058 39.3525 20.8156 38.985 20.2346 38.6061L19.9728 38.4362L19.7914 38.2961V38.1193C20.6135 37.4831 21.6424 37.6347 22.623 37.676L22.1499 36.8975L21.7434 36.227L20.749 34.5965L20.5791 34.3209C20.4723 34.1477 20.3651 33.9747 20.2576 33.8019L20.1152 33.5653L19.9912 33.3633C19.8795 33.1572 19.7835 32.943 19.7041 32.7225L19.4423 32.8925C18.6868 33.3816 17.9289 33.8685 17.1711 34.353L16.9231 34.5138C16.5005 34.7825 16.0734 35.042 15.6348 35.2877C15.6692 34.7297 15.7404 34.1831 15.8414 33.6342L15.8736 33.4367C16.0275 32.587 16.1859 31.735 16.3444 30.8831L16.4638 30.2354L16.5028 30.0288C16.5901 29.5488 16.6728 29.0688 16.7486 28.5889C16.7853 28.3891 16.7853 28.3891 16.8726 28.1227H17.0264L17.759 28.125H18.0346C18.5903 28.125 19.1461 28.1181 19.7018 28.1043C20.0532 28.0974 20.4023 28.0951 20.7536 28.0928C20.9327 28.0928 21.1096 28.0859 21.2864 28.0814C22.4622 28.04 23.204 28.1571 24.0858 28.977L24.4119 29.2985C24.6461 29.5258 24.8988 29.7141 25.1606 29.9093C25.6062 30.2481 26.0487 30.5911 26.4879 30.9382L26.8002 31.1839L27.5765 31.7948L27.8842 32.0382L28.0403 32.1599L28.6604 32.6445C29.0828 32.9794 29.5061 33.3132 29.9303 33.6457L30.2404 33.8914C30.5825 34.1624 30.9339 34.4173 31.2899 34.6699L31.322 34.3967C31.3771 34.0545 31.4667 33.7651 31.5884 33.4413L31.6527 33.2691L31.7905 32.9017L32.1533 31.9142L32.2268 31.7121C32.4496 31.1058 32.6632 30.4972 32.8698 29.8864C33.2235 28.8599 33.5817 27.8333 33.9377 26.8091L34.0181 26.5795C34.5479 25.0662 35.0837 23.5551 35.6256 22.0462L35.7014 21.8349L35.768 21.6558C35.8507 21.2562 35.6256 20.976 35.4143 20.6499L35.2765 20.4433L35.1319 20.2228C34.8012 19.7222 34.4659 19.2215 34.1329 18.7232L33.5014 17.7839C33.1965 17.3314 32.8903 16.8798 32.5828 16.429L32.4565 16.2361C32.4181 16.1803 32.3799 16.1244 32.3416 16.0685C32.2636 15.9169 32.2636 15.9169 32.2636 15.6505L32.4289 15.6046C33.0224 15.4447 33.6157 15.284 34.2087 15.1223L34.4383 15.0534C34.8241 14.9386 35.0928 14.8353 35.3661 14.5252C35.6463 14.2175 35.9402 13.9465 36.2548 13.6755C36.4156 13.5332 36.558 13.3793 36.7027 13.2185C36.9507 12.9981 36.9484 12.9981 37.1459 13.0027Z" fill="#EA1B15"/>
<path d="M16.8726 28.1264C17.168 28.1265 17.4635 28.1265 17.759 28.1264H18.0346C18.5903 28.1264 19.1461 28.1218 19.7018 28.1081C20.0532 28.0989 20.4023 28.0966 20.7536 28.0966C20.9327 28.0943 21.1096 28.0897 21.2864 28.0828C22.4622 28.0438 23.204 28.1609 24.0858 28.9784L24.4119 29.2999C24.6461 29.5296 24.8988 29.7179 25.1606 29.9108C25.712 30.33 26.2586 30.7557 26.8002 31.1876L27.5765 31.7962L27.8842 32.0396L28.0403 32.1613L28.5042 32.5265L28.6604 32.6482L28.9681 32.8893L29.7673 33.5186L29.9349 33.6495L30.2473 33.8929L30.3919 34.0077L30.5159 34.1042L30.6721 34.2282L30.9431 34.4188C31.1659 34.6071 31.198 34.6553 31.2669 34.9562V35.4683C31.2669 35.6727 31.2669 35.8747 31.2623 36.0768V36.5132C31.2532 37.3207 31.2494 38.1283 31.2508 38.936C31.2508 39.7191 31.2462 40.4999 31.2393 41.283L31.2279 43.9515C31.2233 45.7818 31.2141 47.612 31.2026 49.4423L30.8673 49.1897L30.6767 49.0519C30.4241 48.859 30.1715 48.6615 29.9189 48.464L29.7604 48.34C29.2919 47.9726 28.8303 47.5937 28.3687 47.2171C27.9892 46.9084 27.6064 46.6038 27.2205 46.3031C26.714 45.9058 26.2118 45.5032 25.714 45.0951C25.3352 44.7864 24.9532 44.4817 24.5681 44.1811C24.1218 43.8315 23.6793 43.4771 23.2407 43.1178C22.8004 42.7581 22.3563 42.4029 21.9087 42.0523L21.7595 41.9352C21.3586 41.6192 20.9567 41.3046 20.5538 40.9913L20.377 40.8535C20.238 40.742 20.1017 40.6272 19.9682 40.509V40.3322C20.5033 40.0268 20.9052 39.9234 21.516 39.912L21.7365 39.9051C21.9133 39.8982 22.0902 39.8936 22.2693 39.8913L21.996 39.7214C21.4058 39.3539 20.8156 38.9865 20.2346 38.6076L19.9728 38.4399L19.7914 38.2975V38.1207C20.6135 37.4869 21.6424 37.6384 22.623 37.6798L22.1499 36.9013L21.7434 36.2307C21.2524 35.4202 20.7579 34.6118 20.2599 33.8056L20.1152 33.5691L19.9912 33.3647C19.8796 33.1594 19.7836 32.946 19.7041 32.7263L19.4423 32.8939C18.6868 33.3854 17.9289 33.8722 17.1711 34.3568L16.9231 34.5152C16.5005 34.7839 16.0734 35.0457 15.6348 35.2914C15.6692 34.7334 15.7404 34.1845 15.8414 33.638L15.8736 33.4405C16.0275 32.5885 16.1859 31.7365 16.3444 30.8868L16.4638 30.2392L16.5028 30.0325C16.5901 29.5502 16.6728 29.0726 16.7486 28.5903C16.7853 28.3905 16.7853 28.3905 16.8726 28.1264Z" fill="#D30404"/>
<path d="M32.3504 35.1999C32.5066 35.3606 32.5066 35.3606 32.6674 35.5742C32.9498 35.9416 33.2392 36.2999 33.54 36.6536C33.8386 37.0026 34.1348 37.3563 34.4242 37.7145C34.7732 38.144 35.1361 38.5642 35.4966 38.9845C35.8296 39.3749 36.1557 39.7676 36.4772 40.1672C36.7643 40.5139 37.0582 40.8561 37.3545 41.196C37.6255 41.5129 37.8941 41.8344 38.1559 42.1605C38.4935 42.5739 38.8495 42.9666 39.2123 43.3593C39.4879 43.667 39.7451 43.9862 40.0046 44.3077C40.2641 44.6223 40.5305 44.9301 40.7992 45.2378C41.2677 45.7752 41.7224 46.3194 42.1702 46.8752C41.837 47.2227 41.4612 47.5267 41.0518 47.78L40.8589 47.9063C40.4542 48.1758 40.0485 48.4437 39.6418 48.7101L39.2628 48.9581C39.0332 49.1074 38.8242 49.2474 38.6313 49.4403C38.3626 49.4564 38.3626 49.4564 38.0457 49.4518L37.7265 49.4472L37.4808 49.4403C37.4716 52.1433 37.4716 52.1433 38.5004 54.4926C39.1549 55.0254 39.9725 55.3101 40.7808 55.526C41.1391 55.6408 41.41 55.7901 41.727 55.9853V56.0749H31.82C31.9601 55.7954 32.1118 55.5219 32.2747 55.255L32.4193 55.0162L32.5273 54.8348L32.2127 54.8026C31.8694 54.7564 31.5312 54.6788 31.2022 54.5707C31.5513 54.217 31.9095 53.8748 32.2747 53.5373L32.44 53.3811L32.6008 53.2318L32.7454 53.0963C32.8832 52.9769 32.8832 52.9769 33.1473 52.8001C32.9429 51.9137 32.7294 51.0318 32.4905 50.1546C32.3527 49.6355 32.3527 49.6355 32.3527 49.4403H31.2022C31.1975 46.2758 31.1945 43.1112 31.193 39.9467V38.8582C31.1914 38.3912 31.1906 37.9243 31.1907 37.4573C31.1861 35.6753 31.1861 35.6753 31.441 35.3744L31.6271 35.2757L31.8108 35.17C32.0404 35.0965 32.1323 35.1034 32.3504 35.1999Z" fill="#F5362B"/>
<path d="M16.8726 28.1069C18.373 28.0994 19.8734 28.1071 21.3737 28.1298L22.1912 28.1413H22.4438C23.0065 28.1551 23.0065 28.1551 23.2958 28.3595C23.4175 28.5501 23.4175 28.5501 23.4175 28.8142C23.491 28.9658 23.5691 29.1127 23.6518 29.2597L23.8033 29.5307L23.971 29.8201C24.199 30.2224 24.4279 30.6243 24.6576 31.0257L24.9332 31.5149L25.4545 32.422L26.1389 33.6299C26.5775 34.4107 27.023 35.1846 27.4754 35.9562C28.0013 36.8519 28.5088 37.7567 29.0095 38.6661L29.1702 38.9554L29.3103 39.2127C29.4022 39.378 29.5055 39.5387 29.6088 39.6949V39.959C28.9015 40.0003 28.1942 40.0325 27.4846 40.0509C27.1562 40.0601 26.8278 40.0738 26.4971 40.0945C24.3614 40.2208 24.3614 40.2208 23.8194 39.7822C23.5209 39.4147 23.3372 39.0289 23.1649 38.588C23.0271 38.2321 23.0271 38.2321 22.6689 38.0575C22.4162 38.0344 22.1614 38.0499 21.9133 38.1035V38.0139L22.7998 37.9243V37.7498H20.6755V37.6602H22.623L22.1499 36.8817L21.7434 36.2112L20.749 34.5807L20.5791 34.3051C20.4723 34.1319 20.3651 33.9589 20.2576 33.7861L20.1152 33.5495L19.9912 33.3474C19.8795 33.1414 19.7835 32.9272 19.7041 32.7067L19.4423 32.8767C18.6868 33.3658 17.9289 33.8527 17.1711 34.3372L16.9231 34.498C16.5005 34.7667 16.0734 35.0262 15.6348 35.2719C15.6692 34.7139 15.7404 34.1673 15.8414 33.6184L15.8736 33.4209C16.0275 32.5712 16.1859 31.7192 16.3444 30.8672L16.4638 30.2196L16.5028 30.013C16.5901 29.533 16.6728 29.053 16.7486 28.5731C16.7853 28.3733 16.7853 28.3733 16.8726 28.1069Z" fill="#F4120F"/>
<path d="M37.1471 13.0027C37.4846 13.1175 37.7487 13.3012 38.0404 13.5079L38.2195 13.6273C38.4606 13.7881 38.6926 13.9488 38.9131 14.1325C39.246 14.4012 39.4895 14.4311 39.9189 14.392C40.555 14.3117 41.1843 14.1716 41.8089 14.0223C42.0845 13.9695 42.3325 13.9603 42.6127 13.9695L42.5782 14.2887L42.5576 14.4954L42.507 14.9524C42.4657 15.3198 42.4313 15.6804 42.4313 16.0501C42.4129 16.8975 42.4129 16.8975 42.1396 17.1937C41.7722 17.4854 41.3542 17.6714 40.9317 17.862L40.5987 18.0297L39.9786 18.3374C39.6341 18.5119 39.3103 18.7094 38.9842 18.9184C38.8074 19.0103 38.8074 19.0103 38.5433 19.0103L38.4538 19.1894C38.301 19.2119 38.1479 19.2318 37.9945 19.2491C37.4203 19.3111 37.4203 19.3111 36.9771 19.6395C36.8853 19.899 36.8301 20.1562 36.775 20.4272C36.6969 20.6844 36.6143 20.9393 36.5316 21.1965L36.3318 21.8441L36.0654 21.7546V21.5777H35.8886L35.7852 21.3136C35.6108 20.9346 35.3993 20.5739 35.1537 20.2366C35.1078 20.1677 35.0619 20.0988 35.0113 20.0299C34.9128 19.8835 34.8141 19.7373 34.7151 19.5913L33.498 17.7862C33.2428 17.4034 32.9864 17.0214 32.7286 16.6403L32.5863 16.4336C32.5433 16.3686 32.5005 16.3035 32.4576 16.2384L32.3428 16.0685C32.2625 15.9169 32.2625 15.9169 32.2625 15.6505L32.4278 15.6046L33.1856 15.4025L33.4474 15.3336L34.2099 15.12C34.2834 15.0971 34.3591 15.0764 34.4395 15.0557C34.823 14.9363 35.0917 14.8353 35.365 14.5229C35.6452 14.2175 35.9391 13.9465 36.2537 13.6778C36.4145 13.5332 36.5569 13.3793 36.7015 13.2185C36.9496 12.9981 36.9496 12.9981 37.1471 13.0027Z" fill="#CF0101"/>
<path d="M33.3478 49.4287H34.2159L35.1666 49.4333H35.8119L37.3965 49.4379L37.1439 49.7364L37.0015 49.9018C36.8316 50.0924 36.6501 50.2463 36.4503 50.4001L36.2482 50.554C36.0668 50.6757 36.0668 50.6757 35.8027 50.7653C36.0829 52.3498 36.0829 52.3498 36.9946 53.5945C37.3942 53.8288 37.8167 54.0056 38.2485 54.1778C38.7606 54.3937 39.2474 54.6601 39.7412 54.9196C40.0099 55.0643 40.2832 55.2021 40.5564 55.3421C40.9537 55.5465 41.3441 55.7555 41.7276 55.9852V56.0724H31.8229C31.963 55.79 32.1123 55.5236 32.2753 55.2549L32.42 55.0137L32.5302 54.8346L32.2156 54.8002C31.8716 54.7543 31.5326 54.6766 31.2029 54.5682C31.5519 54.2146 31.9102 53.8724 32.2753 53.5348L32.4407 53.3787L32.6014 53.2294L32.7461 53.0939C32.8839 52.9768 32.8839 52.9768 33.148 52.7999C32.966 51.9674 32.7515 51.1424 32.505 50.3266C32.4443 50.0641 32.4226 49.794 32.4407 49.5252C32.7484 49.4563 33.0332 49.4264 33.3478 49.4287Z" fill="#EF2921"/>
<path d="M23.24 28.5635C23.635 28.6416 23.883 28.8643 24.1861 29.1169L24.5444 29.4086L24.7327 29.5624C25.0381 29.8082 25.3528 30.0447 25.6674 30.2835C26.2231 30.7061 26.7697 31.1401 27.3071 31.5833C27.7296 31.9278 28.1568 32.2608 28.5931 32.5892C29.2751 33.1059 29.9411 33.6433 30.6025 34.1876C30.7678 34.3253 30.7678 34.3253 30.9883 34.4654C31.2019 34.6675 31.2019 34.6675 31.2547 34.9109L31.2524 35.1957V35.5172C31.2492 35.7507 31.2461 35.9842 31.2432 36.2176C31.2432 36.53 31.2363 36.84 31.2317 37.1523L31.2225 38.1053C31.218 38.7277 31.2111 39.3523 31.1996 39.9747H29.6104L29.3808 39.5062C29.1077 38.9683 28.8151 38.4405 28.5035 37.9239C28.067 37.183 27.6398 36.4366 27.2221 35.6849C26.8144 34.9527 26.3979 34.2254 25.9728 33.5032C25.5326 32.7532 25.1062 31.9952 24.6937 31.2297C24.327 30.5551 23.9503 29.886 23.5638 29.2226L23.4352 28.9998L23.3204 28.8023C23.24 28.653 23.24 28.653 23.24 28.5635Z" fill="#E50000"/>
<path d="M33.1503 52.7854C33.3248 52.9622 33.3248 52.9622 33.3914 53.2607C33.5315 53.6672 33.6601 53.7315 34.0344 53.9359L34.3881 54.1334L34.5948 54.2482C34.8704 54.3998 35.1459 54.5606 35.4215 54.719L35.7361 54.9027L35.8946 54.9946C36.2355 55.1921 36.5769 55.3889 36.9188 55.5848C37.0474 55.656 37.176 55.7272 37.3069 55.7915C37.145 55.1627 36.9534 54.542 36.7328 53.9313C36.6836 53.7864 36.6384 53.6401 36.5973 53.4927L36.6869 53.3159C39.1808 54.6019 39.1808 54.6019 40.2028 55.1393C40.2671 55.1737 40.3291 55.2082 40.3957 55.2403C40.8435 55.4768 41.2867 55.7226 41.7276 55.9683V56.0579H31.8229C31.963 55.7754 32.1123 55.509 32.2753 55.2403L32.42 54.9992L32.5302 54.8201L32.2156 54.7856C31.8717 54.7404 31.5327 54.6636 31.2029 54.556C31.5519 54.2 31.9102 53.8578 32.2753 53.5203L32.4407 53.3641L32.6014 53.2148L32.7461 53.0816C32.8839 52.9622 32.8839 52.9622 33.148 52.7831L33.1503 52.7854Z" fill="#EA0505"/>
<path d="M16.8723 28.2017H17.0491C17.1777 28.4359 17.226 28.5461 17.226 28.8217H17.4028V29.0858H17.5796C17.7174 29.2948 17.8391 29.5061 17.9608 29.7219C18.2249 30.1858 18.4936 30.6405 18.7807 31.0906L18.9414 31.3432L19.2583 31.8324L19.403 32.0597L19.5339 32.2618C19.6143 32.4478 19.6143 32.4479 19.5982 32.6362C19.4765 32.9117 19.2239 33.0357 18.9782 33.1873L18.8059 33.3021L18.4155 33.5479L17.699 34.0072C16.2683 34.9257 16.2683 34.9258 15.6322 35.2771C15.6689 34.7214 15.7401 34.1748 15.8389 33.6236L15.8733 33.4284C16.0272 32.5765 16.1857 31.7245 16.3441 30.8748L16.4635 30.2272L16.5026 30.0205C16.5898 29.5382 16.6725 29.056 16.7483 28.5714C16.785 28.3785 16.785 28.3785 16.8723 28.204V28.2017Z" fill="#C30202"/>
<path d="M21.693 37.7164C22.062 37.7209 22.431 37.7285 22.7999 37.7394L22.8803 37.8887C23.1558 38.3939 23.4567 38.8761 23.7759 39.3561C24.0377 39.7534 24.0377 39.7534 24.0377 39.9486C22.9583 40.0244 22.2832 39.9807 21.3853 39.3285C21.2456 39.2376 21.1055 39.1472 20.965 39.0576C20.3679 38.6718 20.3679 38.6718 20.1038 38.4949L19.9201 38.3755L19.7915 38.2676V38.0907C20.4253 37.6934 20.9581 37.6934 21.693 37.7164Z" fill="#E40202"/>
<path d="M41.6388 19.4487H41.7284L41.8156 20.5969L44.7345 20.6865C44.4428 20.9782 44.2522 21.1297 43.9008 21.3226L43.6161 21.4811L43.3198 21.6418L42.7457 21.9588L42.4586 22.1172C42.0039 22.3698 41.5561 22.6339 41.1083 22.898C40.9797 22.5535 41.0555 22.2458 41.1244 21.899L41.1588 21.7107C41.2208 21.3813 41.2843 21.0521 41.3495 20.7233L41.4229 20.3443L41.4574 20.1652C41.5056 19.9195 41.5584 19.6852 41.6411 19.4464L41.6388 19.4487Z" fill="#D60505"/>
<path d="M33.1503 52.7854C33.3845 53.0196 33.419 53.1896 33.4488 53.5157C33.3708 54.0484 33.0125 54.471 32.6175 54.8201C32.319 54.8981 32.11 54.8338 31.8229 54.7305C31.7028 54.6995 31.5826 54.6689 31.4624 54.6386L31.2029 54.5537C31.5519 54.2 31.9102 53.8578 32.2753 53.5203L32.4407 53.3641L32.6014 53.2148L32.7461 53.0816C32.8839 52.9622 32.8839 52.9622 33.148 52.7831L33.1503 52.7854Z" fill="#BA0505"/>
<path d="M24.7174 39.9209L25.3466 39.9347L26.8669 39.9691V40.1459L26.55 40.162L25.3719 40.2171L24.8644 40.2401C23.785 40.286 23.785 40.286 22.7057 40.3733C22.1863 40.4168 21.665 40.4322 21.1441 40.4192L20.8524 40.4169L20.1451 40.4123L20.0578 40.5892L19.9683 40.3228C20.4689 40.0426 20.8409 39.914 21.415 39.9002L21.6286 39.8933C22.6574 39.8612 23.6886 39.8933 24.7174 39.9209Z" fill="#CA053D"/>
<path d="M40.6658 19.2742C40.8088 19.3236 40.9326 19.4168 41.0195 19.5406C41.0717 19.7914 41.0386 20.0526 40.9253 20.2824C40.7531 20.4248 40.7531 20.4248 40.4431 20.4638C40.1353 20.4248 40.1353 20.4248 39.9631 20.3306C39.8138 20.0596 39.8368 19.8415 39.8712 19.5406C40.0596 19.2122 40.3099 19.2329 40.6658 19.2742Z" fill="#FEF8F8"/>
<path d="M42.9646 19.5437C43.6168 19.856 44.2208 20.2097 44.8247 20.6047L44.7329 20.7815C44.4611 20.766 44.1894 20.7499 43.9176 20.7333C43.5974 20.7123 43.279 20.6693 42.9646 20.6047V19.5437Z" fill="#FA3E32"/>
<path d="M21.0197 37.7504H21.332L21.6604 37.7549H21.9888L22.7972 37.7595L22.8867 38.0259C21.9452 38.1476 21.0036 38.1224 20.0552 38.1132C20.3767 37.7779 20.5558 37.7481 21.0197 37.7504Z" fill="#C30000"/>
<path d="M42.4365 19.2654L42.9647 19.4422V20.5905H43.4079V20.68L43.0221 20.6846L42.804 20.6892C42.6134 20.68 42.6134 20.68 42.4365 20.5905V19.2654Z" fill="#F8211A"/>
<path d="M41.9041 18.9174C42.3473 19.0942 42.3473 19.0942 42.4368 19.1815C42.4414 19.4203 42.4437 19.6568 42.4414 19.8934V20.1L42.4368 20.5984L42.6114 20.6856L41.9913 20.5984C41.9638 20.0426 41.9362 19.4892 41.9041 18.9174Z" fill="#F50807"/>
<path d="M43.5847 19.9056L44.0555 20.1583L44.3196 20.3029C44.5584 20.4361 44.5584 20.4361 44.8248 20.613L44.7353 20.7898L43.587 20.613V19.9056H43.5847Z" fill="#FC5D4A"/>
<path d="M41.6397 19.4487H41.7292L41.7522 19.9953C41.7522 20.0963 41.7591 20.1974 41.7614 20.303C41.7224 20.6498 41.6121 20.7899 41.3733 21.0379C41.4169 20.4913 41.4927 19.9792 41.6397 19.4464V19.4487Z" fill="#C00505"/>
<path d="M44.2043 20.2397L44.8244 20.5934L44.7325 20.7702L44.2043 20.5934V20.2397Z" fill="#FD7863"/>
</svg>
