<svg width="45" height="44" viewBox="0 0 45 44" fill="none" xmlns="http://www.w3.org/2000/svg">
<g clip-path="url(#clip0_25_845)">
<path d="M30.6933 12.2292C30.1719 11.7378 29.6307 11.1731 29.1172 10.665L25.4741 7.0658C24.9614 6.56429 24.4487 6.02049 23.9257 5.53279C23.6437 5.26975 22.7441 4.93207 22.3508 4.89405C21.6645 4.83139 21.1917 5.03057 20.7019 5.49782C19.9519 6.21339 19.2153 6.93921 18.4822 7.67234L16.0401 10.0998L10.7501 15.3528L7.51289 18.5632C7.04647 19.0325 6.52705 19.5313 6.09742 20.0281C5.86639 20.295 5.70854 20.721 5.70182 21.0721C5.68995 21.6776 5.92059 22.0831 6.33479 22.4975C7.3594 23.5223 8.40379 24.5334 9.43395 25.5518C11.7059 27.8168 13.9913 30.0689 16.289 32.3077L19.5859 35.5782C20.1327 36.1233 20.7288 36.7326 21.3037 37.2467C21.5418 37.4595 22.1859 37.6347 22.5158 37.6268C23.83 37.5952 24.3514 36.9615 25.1857 36.1328L26.3555 34.9866L29.3878 31.9998C31.2365 31.9185 32.8379 31.639 34.6237 31.2142C34.5979 30.8701 34.5109 30.4644 34.4429 30.1215C34.7665 30.1954 35.1138 30.298 35.4407 30.2771C35.4628 30.5276 35.4469 30.825 35.518 31.0654C35.5527 31.1827 35.6196 31.2822 35.7323 31.3372C35.94 31.4387 38.4244 31.4321 38.6949 31.3448C38.7914 31.2432 38.8553 31.053 38.8694 30.9156C39.0193 29.4574 39.0553 27.9712 39.2187 26.5154L39.8007 26.5058C39.8058 26.3187 39.8499 25.9525 39.6987 25.83C39.4416 25.6218 39.4513 25.4076 39.4009 25.095C38.3198 25.0788 37.2342 25.0979 36.1528 25.087C35.8428 25.0839 35.5288 25.0823 35.2194 25.1022C35.1613 25.338 35.1106 25.5967 35.0592 25.8356L34.6699 25.8454L34.6597 26.5024L35.0719 26.5177C35.1209 26.7151 35.1985 26.9918 35.2016 27.1977C35.2242 27.2723 34.9987 27.3255 34.9888 27.353C34.7305 28.0934 34.7965 28.1257 34.1656 28.6423C34.1181 28.4401 34.0678 28.2385 34.0144 28.0377C33.4107 28.1921 32.8419 28.3396 32.2231 28.4307L31.2116 17.5958C31.0438 15.8279 30.8365 13.9914 30.6933 12.2292ZM22.6064 5.04082C22.2919 5.17544 21.8642 5.27126 21.6146 5.50443C20.7589 6.30363 19.9103 7.15188 19.08 7.97517L14.7208 12.2987L8.43781 18.5494C7.88239 19.1119 6.88744 19.9599 6.49421 20.6348C6.23232 21.084 6.52942 21.8951 6.90129 22.182C7.87724 23.1495 8.86071 24.1054 9.84102 25.0666L14.9024 30.0665L20.0939 35.1949C20.6715 35.7605 21.2044 36.3597 21.8005 36.9123C22.2693 37.3469 22.4458 37.2912 22.9755 37.4979C22.7108 37.5008 22.5209 37.4994 22.2579 37.477C21.3341 37.3105 21.003 36.8022 20.3673 36.1718L18.6895 34.4993L14.2247 30.0971L8.66093 24.6115L7.03935 23.0185C6.45465 22.4409 5.6223 21.775 5.83672 20.8312C6.00406 20.0966 6.87043 19.3833 7.40805 18.8423L9.46916 16.7864C11.4076 14.8371 13.3579 12.8997 15.3205 10.9743L18.7512 7.56964C19.4938 6.82428 20.3202 5.97191 21.1363 5.30089C21.4967 5.00466 22.1499 5.00347 22.6064 5.04082ZM23.0459 5.24416C23.8802 5.48453 24.2956 6.06789 24.889 6.6675C25.395 7.17641 25.9049 7.68148 26.4188 8.18267L29.2854 11.013C29.6841 11.411 30.1802 11.8802 30.5513 12.2864C31.1471 17.6264 31.5601 23.0956 32.0886 28.4623C31.7401 28.5409 31.388 28.6037 31.0336 28.6507C30.9485 27.6326 30.829 26.6014 30.7337 25.5812L30.0754 18.5008L29.7601 15.1867C29.6996 14.5106 29.6161 13.4063 29.5085 12.7517L25.7127 8.99219C24.8696 8.14675 24.0132 7.30075 23.1567 6.46713C23.089 6.4011 22.8695 6.22348 22.7777 6.22C22.6388 6.21477 22.4972 6.26517 22.3943 6.36431C21.7001 7.03249 21.007 7.72927 20.3241 8.40749L16.2059 12.5039L9.90472 18.7321C9.23852 19.3971 8.56006 20.0526 7.899 20.7232C7.76568 20.8586 7.67905 20.9675 7.67232 21.164C7.84916 21.5993 9.21755 22.8223 9.65786 23.2556L13.5182 27.0558L19.7003 33.1264L21.689 35.0874C22.0102 35.4022 22.7365 36.1618 23.0918 36.3551C23.3489 36.3157 27.0645 32.5108 27.5866 32.0011C28.1053 32.0221 28.6663 32.0481 29.1821 32.0089C28.0103 33.1818 26.8295 34.3457 25.6399 35.5005C25.0065 36.1218 24.0448 37.3439 23.1294 37.3318C22.7361 37.3229 22.356 37.1872 22.0462 36.9448C21.5972 36.5923 20.7969 35.7072 20.3534 35.2676L16.7202 31.6751L10.0467 25.0807C9.00274 24.0519 7.94054 23.038 6.9005 22.004C6.51439 21.6203 6.36999 20.8668 6.75452 20.4332C7.23439 19.8913 7.78349 19.3753 8.29777 18.8584L11.7364 15.4293L17.4857 9.74756C18.8201 8.42023 20.1477 7.07387 21.5086 5.7728C21.8824 5.41538 22.2816 5.19973 22.8168 5.2258C22.8932 5.22944 22.9695 5.23557 23.0459 5.24416ZM22.8244 6.35715C23.0586 6.51365 23.4981 6.98292 23.7133 7.19706L25.219 8.69945L29.3926 12.837C29.8554 18.1204 30.359 23.4002 30.9034 28.6758C29.3744 28.8307 28.4827 28.8976 26.9442 28.8306C26.8223 27.038 26.1957 25.5812 24.8328 24.3605C24.0171 23.63 23.2318 23.3397 22.2029 23.0444C23.5317 23.0259 24.8954 23.0166 26.2226 22.9746C26.1736 21.2259 26.1158 19.4766 26.0446 17.7288C26.0335 17.3456 26.1443 16.9698 26.1878 16.5929C26.2246 16.2708 26.2028 15.891 26.1217 15.5751C25.1568 11.8223 20.2237 11.1135 17.7242 13.7626C17.712 13.7758 17.6997 13.7891 17.6874 13.8026C16.1897 15.3939 16.1667 16.6347 16.2281 18.6726C16.2739 20.1683 16.3293 21.6637 16.3946 23.1587C17.549 23.1441 18.805 23.0959 19.9456 23.0986C18.2769 23.7232 17.0881 24.5364 16.3147 26.2263C15.8981 27.1308 15.7395 28.1328 15.8554 29.1218C14.7703 28.1624 13.5166 26.8516 12.4655 25.8241L9.56806 22.9807C9.19659 22.6165 8.1514 21.6572 7.80603 21.1844C7.76648 21.1303 7.89861 20.8783 7.95676 20.8487C8.71553 20.0698 9.50239 19.3174 10.2726 18.55L17.1732 11.7262L21.0343 7.88854C21.5193 7.41437 22.0078 6.9212 22.4976 6.45008C22.5728 6.378 22.7211 6.35913 22.8244 6.35715ZM23.4083 14.3337C23.7002 14.8596 23.9906 15.4686 24.2806 15.9669L25.7732 15.6258C25.8361 16.2757 26.0082 18.4838 25.8863 19.0475C25.4413 21.1033 23.3454 22.1268 21.3986 21.2096C20.5516 20.7288 20.3166 20.3494 19.8273 19.5097C19.4368 19.4993 19.2101 19.4108 18.932 19.1315C18.3916 18.5893 18.4877 17.5018 19.415 17.5465C19.6409 17.5573 19.8375 17.639 20.0476 17.723L20.0785 17.6991C20.2881 17.5348 20.8448 16.8792 20.9314 16.8404C21.6059 16.5377 22.8762 16.3207 23.6096 16.1267C23.5815 15.8239 23.3632 14.4918 23.4083 14.3337ZM19.921 19.9288C20.4436 20.8366 21.058 21.3098 22.0593 21.5807L22.0862 21.5879C22.0992 22.0017 22.104 22.8033 22.155 23.1924C24.9958 23.9228 26.5684 25.9108 26.8014 28.8167C25.7095 28.7383 24.4851 28.4436 23.4356 28.1205C23.0716 28.0085 22.2329 27.6508 21.9481 27.6092L21.9453 27.6452C22.4327 27.9748 23.1919 28.1836 23.7536 28.3594C27.0977 29.4065 30.5822 29.0276 33.9238 28.2033C34.0453 28.6815 34.1299 29.2211 34.2253 29.7117C34.3123 30.1581 34.4243 30.6618 34.4848 31.1078C31.3825 31.8435 27.7109 32.2518 24.5725 31.4711C23.6156 31.2542 22.7247 31.0143 21.8108 30.6487C21.5822 30.5572 20.4855 30.0817 20.3503 30.0789L20.3008 30.116C20.336 30.2051 20.3685 30.2035 20.4713 30.2496C22.4731 31.1452 25.1786 31.9439 27.392 32.0042L24.6968 34.6829C24.2584 35.1192 23.5475 35.8678 23.091 36.248C22.7009 35.9302 22.3235 35.521 21.9552 35.173C19.9503 33.2782 18.0451 31.2172 16.0366 29.3318C15.7953 27.8433 16.1363 26.5913 16.9955 25.3461C17.6273 24.4304 18.8794 23.5104 19.9772 23.2771C19.9673 22.938 19.8601 19.9981 19.921 19.9288ZM39.2608 25.222L39.4176 25.8038C38.0455 25.8152 36.6436 25.8018 35.2764 25.8295L35.2167 25.8028C35.2016 25.6513 35.2835 25.3711 35.3298 25.2172L39.2608 25.222ZM39.0699 26.5143C39.0153 27.1666 38.8074 30.8486 38.6477 31.1966C38.4099 31.3267 36.3372 31.2239 35.9121 31.2635C35.6105 31.2917 35.6012 30.4877 35.5815 30.2314C36.1093 30.0869 36.7191 29.9218 37.2253 29.7176C37.3021 29.6412 37.3631 29.6016 37.3744 29.4985C37.3386 29.3521 37.3176 29.3697 37.3681 29.2578C37.462 29.1961 37.6554 29.0967 37.6634 28.973C37.8017 26.8443 36.7036 27.7736 35.4417 28.1276C35.4527 27.6708 35.3342 26.963 35.2167 26.5105L39.0699 26.5143ZM35.2665 27.4092C35.3172 27.7787 35.3195 27.9462 35.2452 28.3195C35.5601 28.2301 37.0641 27.6634 37.2481 27.7676C37.291 27.7919 37.2831 27.8147 37.2938 27.8596C37.0935 28.0586 35.6538 28.4087 35.5382 28.5523L35.564 28.6044C35.8539 28.6752 37.2808 27.8902 37.5449 28.0996C37.4921 28.4478 35.9332 28.618 35.8613 28.8815C36.0402 28.9946 37.1348 28.4152 37.5215 28.4633L37.5727 28.5092C37.5221 28.6861 37.1829 28.7683 37.0154 28.8171C36.8238 28.8822 36.2069 29.061 36.1079 29.1775L36.1024 29.2385C36.2778 29.2841 37.3486 28.7668 37.5327 28.8613C37.6215 29.2107 36.094 29.4042 36.0534 29.6127C36.318 29.6881 36.9504 29.3144 37.2236 29.4074L37.2407 29.4508C37.0609 29.7536 35.9636 29.9641 35.6026 30.0922C35.225 30.2263 34.8076 30.0715 34.4152 29.9705C34.3432 29.6214 34.2292 29.1375 34.1901 28.7937C34.6055 28.4854 34.9765 28.1766 35.0474 27.6298C35.064 27.4994 35.0434 27.5177 35.1174 27.4331L35.2665 27.4092Z" fill="#080717"/>
<path d="M22.9753 37.4974C22.4456 37.2907 22.2692 37.3463 21.8004 36.9117C21.2042 36.3592 20.6713 35.7599 20.0938 35.1944L14.9022 30.0659L9.84088 25.0661C8.86057 24.1048 7.8771 23.1489 6.90115 22.1814C6.52928 21.8946 6.23218 21.0834 6.49407 20.6342C6.8873 19.9593 7.88224 19.1113 8.43767 18.5488L14.7207 12.2981L19.0798 7.9746C19.9102 7.15131 20.7588 6.30305 21.6145 5.50385C21.8641 5.27068 22.2917 5.17487 22.6062 5.04024C22.1497 5.0029 21.4966 5.00409 21.1362 5.30031C20.32 5.97134 19.4936 6.82371 18.7511 7.56907L15.3204 10.9738C13.3578 12.8992 11.4075 14.8365 9.46902 16.7858L7.40791 18.8417C6.87029 19.3828 6.00391 20.096 5.83657 20.8306C5.62215 21.7744 6.45451 22.4404 7.03921 23.018L8.66079 24.611L14.2246 30.0965L18.6894 34.4987L20.3671 36.1712C21.0029 36.8016 21.334 37.3099 22.2577 37.4764C22.5208 37.4988 22.7107 37.5002 22.9753 37.4974Z" fill="#801C1E"/>
<path d="M25.1846 17.7358C25.3175 17.7714 25.4544 17.6954 25.4948 17.564C25.5347 17.4325 25.4635 17.2929 25.3338 17.2482C25.2455 17.2179 25.1478 17.2381 25.079 17.3009C25.0101 17.3637 24.9809 17.4592 25.003 17.5498C25.0252 17.6404 25.0948 17.7117 25.1846 17.7358Z" fill="#080717"/>
<path d="M24.1485 18.742C24.3044 18.7411 24.3388 18.7379 24.4401 18.6475C24.5157 18.3898 24.3044 17.9891 24.1932 17.7344C23.9697 17.8945 24.3946 18.3359 24.3301 18.5604C24.3163 18.6079 24.2304 18.5418 24.1485 18.742Z" fill="#080717"/>
<path d="M22.2825 18.2158C22.3601 18.262 22.4562 18.2629 22.5349 18.2181C22.6133 18.1733 22.6615 18.0899 22.6611 17.9995C22.6607 17.9092 22.6117 17.8261 22.533 17.782C22.4135 17.715 22.2624 17.7566 22.1935 17.8752C22.1251 17.9939 22.1646 18.1456 22.2825 18.2158Z" fill="#080717"/>
<path d="M19.2305 17.9674C19.3416 17.9575 19.4785 17.9753 19.5912 17.9885L19.6233 17.9523L19.5734 17.8582C19.4318 17.8517 19.2506 17.8219 19.1877 17.9749L19.2305 17.9674Z" fill="#080717"/>
<path d="M19.4458 18.2288C19.5237 18.2916 19.5696 18.3467 19.665 18.3486L19.6875 18.2992C19.5997 18.1574 19.621 18.1973 19.4588 18.1094C19.3271 18.1105 19.2377 18.1022 19.1653 18.2187C19.2757 18.2838 19.2848 18.253 19.4458 18.2288Z" fill="#080717"/>
<path d="M23.048 19.5712C23.4456 19.7672 24.4223 19.9227 24.6953 19.4766C24.5125 19.4791 24.1363 19.6502 23.7961 19.6385C23.5041 19.6285 23.2727 19.4858 23.0979 19.4973L23.048 19.5712Z" fill="#080717"/>
<path d="M35.5809 30.2287C35.6006 30.485 35.6099 31.289 35.9115 31.2608C36.3367 31.2212 38.4093 31.324 38.6471 31.1939C38.8068 30.8459 39.0147 27.1639 39.0693 26.5116L35.2161 26.5078C35.3336 26.9603 35.4521 27.6681 35.4411 28.1249C36.703 27.7709 37.8012 26.8416 37.6628 28.9703C37.6548 29.094 37.4615 29.1934 37.3675 29.2551C37.317 29.367 37.338 29.3494 37.3738 29.4958C37.3625 29.5989 37.3016 29.6385 37.2248 29.7149C36.7185 29.9191 36.1087 30.0842 35.5809 30.2287Z" fill="#FEBA7C"/>
</g>
<defs>
<clipPath id="clip0_25_845">
<rect width="45" height="44" fill="white" transform="matrix(-1 0 0 1 45 0)"/>
</clipPath>
</defs>
</svg>
