<svg width="45" height="44" viewBox="0 0 45 44" fill="none" xmlns="http://www.w3.org/2000/svg">
<g clip-path="url(#clip0_25_927)">
<path d="M27.2565 39.1559L28.4469 39.8255L28.2609 40.0859L27.8517 39.9371L27.3681 39.8255C26.9341 39.5775 26.0662 39.0666 26.0662 39.0071C26.0662 38.9476 25.719 38.7095 25.5454 38.598L25.1363 38.412L24.6899 37.9656C24.6155 37.8912 24.2063 37.4076 24.0947 37.2588C24.0054 37.1398 23.5367 36.6885 23.3136 36.4777L21.9372 32.3487C21.838 31.7039 21.6396 30.3995 21.6396 30.34C21.6396 30.2805 21.838 30.2656 21.9372 30.2656H22.2348L22.9416 31.5304L24.4667 35.1757L26.2894 38.1144L27.2565 39.1559Z" fill="#801C1E" stroke="black" stroke-width="0.0743958"/>
<path d="M30.6091 6.65314C29.8115 8.31918 27.7412 8.7697 26.0555 8.69505C25.8659 8.90266 25.5035 9.31677 25.2943 9.47485C25.2147 9.22941 25.0833 8.78545 24.9851 8.56401C23.852 8.1634 23.0781 7.89922 22.4213 6.80818C22.047 5.78669 22.4493 4.96278 23.3301 4.3801C24.5896 3.54425 26.316 3.37356 27.7658 3.66019C28.9513 3.89457 30.4408 4.58354 30.6649 5.89527C30.7141 6.18256 30.6694 6.37729 30.6091 6.65314ZM26.1645 3.78354C25.0707 3.86359 23.619 4.18959 22.9164 5.07161C21.5563 6.77921 23.8075 8.02308 25.1499 8.342L25.4334 9.03834C25.6261 8.83152 25.7495 8.69744 25.9186 8.46695L26.4841 8.46911C27.7287 8.40396 29.067 8.14386 29.9663 7.21582C30.7197 6.43831 30.5042 5.45563 29.7286 4.80274C28.7971 4.01858 27.3491 3.70607 26.1645 3.78354Z" fill="#18181E"/>
<path d="M25.1501 8.34336C23.8077 8.02444 21.5565 6.78057 22.9166 5.07296C23.6192 4.19095 25.0709 3.86495 26.1647 3.7849C27.3493 3.70743 28.7972 4.01993 29.7288 4.80409C30.5044 5.45698 30.7199 6.43967 29.9665 7.21717C29.0671 8.14521 27.7289 8.40532 26.4843 8.47046L25.9188 8.46831C25.7497 8.69879 25.6263 8.83288 25.4336 9.0397L25.1501 8.34336ZM25.0376 5.51692C25.1932 5.54884 25.9097 5.57495 26.0316 5.47353L26.0255 5.40028C25.8045 5.17729 24.9661 5.21839 24.7545 5.34868C24.734 5.8433 24.7216 6.48068 24.748 6.96921C25.1265 6.98027 25.7107 7.02929 26.0447 6.88799L26.0641 6.83522C25.7932 6.70291 25.339 6.72972 25.0371 6.73469L25.0085 6.22858C25.2618 6.23383 25.6368 6.3024 25.8242 6.11789C25.6961 5.9584 25.2602 6.01253 25.0678 6.02345C24.9752 5.92742 25.0253 5.64454 25.0376 5.51692ZM26.9665 5.24037C26.8373 5.52367 26.8442 6.64339 27.0008 6.93134L27.0614 6.92698C27.1937 6.66678 27.1701 6.031 27.1704 5.71465C27.4266 6.05602 28.0064 6.97802 28.3837 7.01289C28.3969 6.70863 28.4632 5.49344 28.3248 5.2945L28.2358 5.28438C28.0409 5.45417 28.1098 6.25028 28.1311 6.52178C27.9183 6.25914 27.2569 5.32398 26.9665 5.24037Z" fill="#FEFEFE"/>
<path d="M24.7529 5.3489C24.9645 5.21861 25.8029 5.17751 26.0239 5.40049L26.03 5.47375C25.9081 5.57516 25.1915 5.54906 25.036 5.51714C24.9233 5.38072 24.941 5.41741 24.7529 5.3489Z" fill="#18181E"/>
<path d="M27.1695 5.71647C27.1691 6.03282 27.1928 6.6686 27.0605 6.9288L26.9999 6.93316C26.8432 6.64521 26.8364 5.52549 26.9656 5.24219C27.256 5.3258 27.9174 6.26096 28.1302 6.5236C28.1089 6.2521 28.04 5.45599 28.2349 5.2862L28.3239 5.29632C28.4623 5.49526 28.396 6.71045 28.3828 7.0147C28.0055 6.97984 27.4256 6.05784 27.1695 5.71647Z" fill="black"/>
<path d="M24.755 5.34375C24.943 5.41227 24.9254 5.37557 25.038 5.512C25.0258 5.63961 24.9757 5.9225 25.0683 6.01853L25.0089 6.22366L25.0375 6.72976C25.3394 6.7248 25.7936 6.69799 26.0645 6.83029L26.0451 6.88306C25.7111 7.02436 25.127 6.97534 24.7484 6.96428C24.722 6.47575 24.7344 5.83837 24.755 5.34375Z" fill="black"/>
<path d="M25.0672 6.02545C25.2595 6.01453 25.6955 5.9604 25.8235 6.11989C25.6361 6.3044 25.2611 6.23583 25.0078 6.23058L25.0672 6.02545Z" fill="#18181E"/>
<path d="M22.0964 23.9199C22.295 23.9883 22.6116 24.0476 22.8244 24.0941C22.6756 24.1921 22.5433 24.275 22.3575 24.2281C20.6844 23.7604 17.6757 23.615 16.0565 24.1608C11.7663 25.6342 10.3105 31.6673 9.60947 35.6504C9.49451 36.32 9.40673 36.9941 9.34628 37.6709C9.31806 37.9588 9.28333 38.896 9.11621 39.0737L9.01598 38.9745C8.92485 38.7282 9.24889 36.1296 9.34595 35.6928C9.50435 35.0078 9.57634 34.2504 9.74965 33.546C10.7958 29.2931 12.3838 24.4314 17.2853 23.6232C17.7136 22.4534 17.9228 21.4377 17.4447 20.2422C17.1148 20.0529 16.8304 19.8737 16.5163 19.6624C14.8107 18.5147 13.5691 15.8788 14.9033 14.0267C14.3925 13.7603 14.0307 13.5663 13.7284 13.028C13.4463 12.534 13.3746 11.9475 13.5293 11.4001C13.6972 10.8116 14.0952 10.3155 14.6332 10.024C15.9355 9.30474 17.2202 9.84927 17.8832 11.1135C19.681 10.4026 21.7063 10.5635 23.357 11.6132C24.5966 12.4015 24.6285 13.3368 23.8472 14.4804C24.0542 15.0884 24.1956 15.5151 24.3426 16.1438C25.2317 16.3833 25.0732 16.729 24.4986 17.2487C24.8248 19.4799 23.6867 20.8661 21.5691 21.3904C21.6459 22.4258 21.808 22.9287 22.0964 23.9199ZM23.6604 14.7554C23.2601 15.0742 23.1065 15.0983 22.6212 15.2579C22.5178 15.466 22.3786 15.786 22.2257 15.9469C21.9399 16.02 20.702 14.6836 20.2386 15.335C20.0999 15.53 20.1302 16.1131 20.2112 16.342C20.4552 17.0749 21.0883 17.4596 21.7046 17.8274C20.9629 19.4588 19.3073 19.879 17.6958 20.2252C18.0232 21.0902 18.0527 21.7806 17.8411 22.6982C17.7839 22.9463 17.619 23.3348 17.6052 23.568C17.7183 23.6125 17.7505 23.6016 17.8759 23.594C19.198 23.4723 20.5255 23.6487 21.8323 23.8439C21.527 22.9238 21.3588 22.1927 21.3304 21.2283C22.5369 20.8573 23.6939 20.3404 24.1653 19.0462C24.2344 18.8565 24.3087 18.7389 24.248 18.544C24.0459 18.372 23.7606 18.5039 23.5574 18.3145L23.5656 18.202C23.7546 18.1046 24.0587 18.275 24.3179 18.3205C24.3559 17.96 24.2928 17.4692 24.2483 17.1011C24.4643 16.9552 24.7734 16.8063 24.6627 16.5107C24.5086 16.3688 24.3389 16.3678 24.1301 16.3365C24.0241 15.9574 23.8437 15.0303 23.6604 14.7554Z" fill="black"/>
<path d="M22.6225 15.2525C23.1077 15.0929 23.2613 15.0688 23.6617 14.75C23.845 15.0249 24.0253 15.952 24.1314 16.3312C24.3401 16.3624 24.5098 16.3635 24.6639 16.5054C24.7746 16.8009 24.4656 16.9498 24.2496 17.0957C24.294 17.4638 24.3572 17.9546 24.3191 18.3151C24.0599 18.2696 23.7559 18.0992 23.5669 18.1967L23.5586 18.3091C23.7619 18.4985 24.0471 18.3666 24.2493 18.5386C24.3099 18.7335 24.2356 18.8511 24.1666 19.0408C23.6951 20.3351 22.5381 20.8519 21.3316 21.2229C21.36 22.1873 21.5282 22.9185 21.8335 23.8385C20.5268 23.6433 19.1992 23.4669 17.8771 23.5886C17.7517 23.5962 17.7195 23.6071 17.6064 23.5626C17.6202 23.3294 17.7851 22.9409 17.8424 22.6928C18.054 21.7753 18.0244 21.0848 17.697 20.2198C19.3086 19.8736 20.9642 19.4534 21.7059 17.8221C21.0895 17.4543 20.4565 17.0695 20.2124 16.3366C20.1314 16.1078 20.1011 15.5246 20.2398 15.3296C20.7033 14.6782 21.9411 16.0146 22.2269 15.9415C22.3798 15.7806 22.519 15.4606 22.6225 15.2525ZM23.2962 15.6484C23.2347 15.7903 23.2063 15.8355 23.2155 15.9946C23.298 16.1282 23.2768 16.1116 23.4641 16.1677C23.5184 16.0229 23.5456 15.9743 23.528 15.8161C23.4458 15.6892 23.4718 15.7025 23.2962 15.6484Z" fill="#FEFEFE"/>
<path d="M23.4632 16.1755C23.2759 16.1194 23.297 16.136 23.2146 16.0024C23.2054 15.8433 23.2338 15.7981 23.2952 15.6562C23.4708 15.7103 23.4449 15.6971 23.5271 15.8239C23.5447 15.9822 23.5174 16.0307 23.4632 16.1755Z" fill="black"/>
<path d="M32.5251 24.5368C32.7828 24.5443 33.2306 24.5364 33.4508 24.6241L33.4535 24.6966L33.4087 24.7165L33.4247 24.8464C33.3366 24.7317 33.4253 24.6928 33.3148 24.6463L33.2332 24.7406C33.3115 24.9167 33.3152 24.8579 33.2795 25.026C33.2606 24.9786 33.2092 24.8134 33.1606 24.8085C31.8655 24.6785 30.5338 24.7976 29.2271 24.7044C29.2119 25.2991 29.2216 29.2442 29.3328 29.6143C29.5723 30.4113 31.8962 34.7697 31.8079 35.0955L31.7572 35.1416C31.5026 35.0193 31.1247 34.0093 30.9848 33.7105C30.5641 32.8046 30.132 31.9041 29.6889 31.0091C29.426 30.1791 27.5147 26.805 27.4902 26.3235C27.5296 26.3188 27.5916 26.3221 27.6331 26.3227C27.8751 26.5216 28.7551 28.5541 29.0422 29.0205C29.0665 28.3391 28.8467 24.8635 29.0769 24.562C29.222 24.4732 29.4314 24.5018 29.6074 24.5075C29.4833 22.9735 29.5565 21.4314 30.0858 19.9525C30.2512 19.4902 31.2298 16.2327 32.0751 17.2991C32.273 17.5489 31.7704 19.3159 31.6641 19.7433C32.2127 19.8231 32.8848 20.0163 33.343 20.3076C33.8877 20.6539 33.6546 21.0272 33.6023 21.5081C33.5821 21.6928 33.646 21.9929 33.6158 22.2268C33.4984 23.1338 33.0847 23.8356 32.5251 24.5368ZM31.6147 17.2823C30.6852 18.3796 29.9309 21.0491 29.8242 22.4954C29.7769 23.1358 29.8171 23.8477 29.8544 24.4948C30.4488 24.5018 31.6922 24.543 32.2264 24.4721C32.9583 23.7589 33.3706 22.8582 33.4039 21.8316C33.0829 22.1757 32.7675 22.4117 32.2959 22.1612C31.9318 21.6361 32.1621 21.8417 31.5988 21.657C31.4089 21.5947 30.858 20.7145 31.1695 20.4559C31.3851 20.5873 31.4877 21.6607 32.1399 21.5157C32.5605 21.4221 32.3462 20.9125 32.5062 20.6883C32.6584 20.6876 32.6074 20.6661 32.7047 20.7577C32.7795 21.187 32.2699 21.6248 32.442 21.9515C32.8922 22.1492 33.1771 21.742 33.3545 21.39C33.8913 20.3247 32.1371 20.0391 31.3944 19.9477C31.4636 19.4116 32.005 17.667 31.8157 17.3592C31.7245 17.3034 31.7182 17.2948 31.6147 17.2823Z" fill="#18181E"/>
<path d="M33.4392 21.8434L33.3924 22.0778L32.8768 22.5699H32.3847C32.1738 22.5777 31.738 22.5886 31.6818 22.5699C31.6115 22.5464 31.0959 22.0778 31.0256 21.8434C30.9553 21.6091 30.6507 21.3513 30.6741 21.1873C30.6929 21.0561 30.7913 20.6327 30.8382 20.4375L31.2131 20.2031L32.6659 20.3672L33.3455 20.6718C33.3455 20.6718 33.4861 20.9764 33.4861 21.1639C33.4861 21.2832 33.4627 21.4685 33.4627 21.4685L33.4392 21.8434Z" fill="white" stroke="black" stroke-width="0.0468659"/>
<path d="M29.8544 24.4937C29.8171 23.8466 29.777 23.1348 29.8242 22.4943C29.931 21.048 30.6853 18.3785 31.6147 17.2812C31.7182 17.2937 31.7245 17.3023 31.8157 17.3582C32.0051 17.6659 31.4636 19.4106 31.3944 19.9466C32.1371 20.038 33.8913 20.3236 33.3545 21.389C33.1772 21.741 32.8923 22.1481 32.4421 21.9504C32.2699 21.6238 32.7796 21.1859 32.7047 20.7566C32.6074 20.6651 32.6585 20.6866 32.5063 20.6872C32.3462 20.9114 32.5605 21.4211 32.1399 21.5146C31.4877 21.6597 31.3852 20.5862 31.1696 20.4549C30.8581 20.7134 31.4089 21.5937 31.5988 21.656C32.1621 21.8406 31.9318 21.635 32.296 22.1601C32.7676 22.4106 33.0829 22.1746 33.404 21.8306C33.3706 22.8571 32.9583 23.7578 32.2264 24.471C31.6923 24.542 30.4488 24.5007 29.8544 24.4937Z" fill="#FEFEFE"/>
<path d="M16.0576 24.163C17.6768 23.6172 20.6855 23.7627 22.3586 24.2304C22.0078 24.7028 19.6951 25.0446 19.082 25.0067C18.2329 24.9541 16.7202 24.7418 16.0576 24.163Z" fill="#FEFEFE"/>
<path d="M22.824 24.099C24.6907 23.6061 25.9928 24.141 27.105 25.7144C27.1842 25.8264 27.4232 26.2795 27.4899 26.3306C27.5143 26.8121 29.4257 30.1862 29.6885 31.0162C28.7485 33.1199 26.6872 34.1146 24.4469 34.062C23.6658 32.4512 22.8263 30.8703 22.1038 29.2319C22.0694 29.1539 22.0082 29.0912 21.9281 29.0626L21.8532 29.0958C21.7898 29.3822 21.9295 29.9989 21.9706 30.3136C22.4593 34.0581 24.5744 38.7108 28.4589 39.9435C28.3877 40.1052 28.5814 43.1265 28.6631 43.4174C28.6743 43.599 28.6989 43.8022 28.7169 43.9851L13.8412 44.0016C12.2584 44.0048 10.6488 43.9734 9.07085 43.9998C9.06513 42.2922 8.97247 40.8316 9.11579 39.0786C9.28292 38.9009 9.31765 37.9636 9.34586 37.6757C9.40632 36.999 9.4941 36.3249 9.60906 35.6553C10.3101 31.6722 11.7659 25.6391 16.0561 24.1657C16.7187 24.7444 18.2314 24.9568 19.0805 25.0093C19.6936 25.0473 22.0063 24.7054 22.3571 24.233C22.5429 24.2799 22.6751 24.197 22.824 24.099Z" fill="#801C1E"/>
<path d="M33.4515 24.625C33.7015 27.3962 33.9281 30.1695 34.1314 32.9445C34.1817 33.6337 34.2306 34.3283 34.2802 35.0156C34.3448 35.9128 34.4381 36.7199 34.0922 37.5754C33.906 38.0362 33.738 38.3638 33.4204 38.7498C32.2571 40.1637 30.1391 40.6516 28.46 39.9374C24.448 38.038 24.0577 34.0558 21.9717 30.3074C21.9291 30.0033 21.7909 29.376 21.8542 29.0896L21.9292 29.0565C22.0093 29.085 22.0705 29.1477 22.1049 29.2257C22.8274 30.8642 23.6669 32.445 24.448 34.0558C24.6584 34.5417 25.0415 35.2682 25.2967 35.7629C25.7319 36.6063 26.2044 37.8096 26.7968 38.5047C27.5484 39.3731 28.6108 39.9117 29.7554 40.0047C32.3053 40.1954 34.313 38.2854 34.0718 35.6775C33.9566 34.4309 33.8964 33.0875 33.7949 31.8266L33.4515 27.3716C33.4154 26.9498 33.2479 25.4002 33.2769 25.0618L33.2802 25.0269C33.3158 24.8589 33.3122 24.9176 33.2339 24.7416L33.3155 24.6472C33.426 24.6937 33.3373 24.7326 33.4254 24.8473L33.4093 24.7175L33.4542 24.6975L33.4515 24.625Z" fill="url(#paint0_linear_25_927)"/>
<path d="M29.2281 24.7031C30.5348 24.7963 31.8665 24.6772 33.1616 24.8073C33.2102 24.8122 33.2616 24.9773 33.2805 25.0247L33.2772 25.0596C33.2482 25.398 33.4157 26.9476 33.4518 27.3694L33.7951 31.8244C33.8966 33.0853 33.9568 34.4287 34.0721 35.6753C34.3133 38.2832 32.3056 40.1932 29.7557 40.0025C28.6111 39.9095 27.5487 39.3709 26.7971 38.5025C26.2046 37.8074 25.7321 36.6041 25.297 35.7607C25.0418 35.266 24.6587 34.5395 24.4482 34.0536C26.6885 34.1062 28.7498 33.1115 29.6899 31.0078C30.133 31.9029 30.565 32.8034 30.9858 33.7092C31.1257 34.0081 31.5035 35.0181 31.7582 35.1404L31.8089 35.0942C31.8972 34.7684 29.5733 30.41 29.3338 29.6131C29.2226 29.2429 29.2128 25.2979 29.2281 24.7031Z" fill="#FEFEFE"/>
<path d="M34.6865 27.6763L35.0955 27.5L35.3619 27.9849C35.2308 27.973 34.8229 27.747 34.6865 27.6763Z" fill="#FEFEFE"/>
</g>
<defs>
<linearGradient id="paint0_linear_25_927" x1="21.7732" y1="31.9912" x2="34.3968" y2="32.5243" gradientUnits="userSpaceOnUse">
<stop/>
<stop offset="1" stop-color="#181722"/>
</linearGradient>
<clipPath id="clip0_25_927">
<rect width="45" height="44" fill="white" transform="matrix(-1 0 0 1 45 0)"/>
</clipPath>
</defs>
</svg>
