<svg width="45" height="44" viewBox="0 0 45 44" fill="none" xmlns="http://www.w3.org/2000/svg">
<g clip-path="url(#clip0_25_888)">
<path d="M27.947 39.1559L29.1373 39.8255L28.9513 40.0859L28.5421 39.9371L28.0586 39.8255C27.6246 39.5775 26.7566 39.0666 26.7566 39.0071C26.7566 38.9476 26.4094 38.7095 26.2359 38.598L25.8267 38.412L25.3803 37.9656C25.3059 37.8912 24.8967 37.4076 24.7851 37.2588C24.6959 37.1398 24.2272 36.6885 24.004 36.4777L22.6277 32.3487C22.5285 31.7039 22.3301 30.3995 22.3301 30.34C22.3301 30.2805 22.5285 30.2656 22.6277 30.2656H22.9252L23.632 31.5304L25.1571 35.1757L26.9798 38.1144L27.947 39.1559Z" fill="#801C1E" stroke="black" stroke-width="0.0743958"/>
<path d="M31.2996 6.65314C30.5019 8.31918 28.4316 8.7697 26.7459 8.69505C26.5563 8.90266 26.1939 9.31677 25.9848 9.47485C25.9051 9.22941 25.7737 8.78545 25.6755 8.56401C24.5424 8.1634 23.7686 7.89922 23.1117 6.80818C22.7374 5.78669 23.1397 4.96278 24.0205 4.3801C25.28 3.54425 27.0064 3.37356 28.4562 3.66019C29.6418 3.89457 31.1312 4.58354 31.3554 5.89527C31.4045 6.18256 31.3599 6.37729 31.2996 6.65314ZM26.8549 3.78354C25.7612 3.86359 24.3094 4.18959 23.6068 5.07161C22.2467 6.77921 24.4979 8.02308 25.8403 8.342L26.1239 9.03834C26.3165 8.83152 26.4399 8.69744 26.609 8.46695L27.1746 8.46911C28.4191 8.40396 29.7574 8.14386 30.6567 7.21582C31.4102 6.43831 31.1947 5.45563 30.419 4.80274C29.4875 4.01858 28.0395 3.70607 26.8549 3.78354Z" fill="#18181E"/>
<path d="M25.8405 8.34336C24.4981 8.02444 22.2469 6.78057 23.607 5.07296C24.3096 4.19095 25.7614 3.86495 26.8551 3.7849C28.0397 3.70743 29.4877 4.01993 30.4192 4.80409C31.1949 5.45698 31.4103 6.43967 30.6569 7.21717C29.7576 8.14521 28.4193 8.40532 27.1747 8.47046L26.6092 8.46831C26.4401 8.69879 26.3167 8.83288 26.1241 9.0397L25.8405 8.34336ZM25.728 5.51692C25.8836 5.54884 26.6002 5.57495 26.722 5.47353L26.7159 5.40028C26.495 5.17729 25.6566 5.21839 25.445 5.34868C25.4244 5.8433 25.412 6.48068 25.4384 6.96921C25.817 6.98027 26.4011 7.02929 26.7351 6.88799L26.7545 6.83522C26.4836 6.70291 26.0294 6.72972 25.7275 6.73469L25.6989 6.22858C25.9522 6.23383 26.3272 6.3024 26.5146 6.11789C26.3866 5.9584 25.9506 6.01253 25.7583 6.02345C25.6657 5.92742 25.7158 5.64454 25.728 5.51692ZM27.657 5.24037C27.5277 5.52367 27.5346 6.64339 27.6913 6.93134L27.7518 6.92698C27.8841 6.66678 27.8605 6.031 27.8609 5.71465C28.117 6.05602 28.6968 6.97802 29.0741 7.01289C29.0873 6.70863 29.1537 5.49344 29.0152 5.2945L28.9262 5.28438C28.7314 5.45417 28.8002 6.25028 28.8215 6.52178C28.6087 6.25914 27.9473 5.32398 27.657 5.24037Z" fill="#FEFEFE"/>
<path d="M25.4434 5.3489C25.655 5.21861 26.4933 5.17751 26.7143 5.40049L26.7204 5.47375C26.5986 5.57516 25.882 5.54906 25.7264 5.51714C25.6138 5.38072 25.6314 5.41741 25.4434 5.3489Z" fill="#18181E"/>
<path d="M27.86 5.71647C27.8596 6.03282 27.8832 6.6686 27.7509 6.9288L27.6903 6.93316C27.5337 6.64521 27.5268 5.52549 27.656 5.24219C27.9464 5.3258 28.6078 6.26096 28.8206 6.5236C28.7993 6.2521 28.7304 5.45599 28.9253 5.2862L29.0143 5.29632C29.1527 5.49526 29.0864 6.71045 29.0732 7.0147C28.6959 6.97984 28.1161 6.05784 27.86 5.71647Z" fill="black"/>
<path d="M25.4454 5.34375C25.6335 5.41227 25.6158 5.37557 25.7284 5.512C25.7162 5.63961 25.6661 5.9225 25.7587 6.01853L25.6993 6.22366L25.7279 6.72976C26.0298 6.7248 26.484 6.69799 26.7549 6.83029L26.7356 6.88306C26.4016 7.02436 25.8174 6.97534 25.4388 6.96428C25.4125 6.47575 25.4248 5.83837 25.4454 5.34375Z" fill="black"/>
<path d="M25.7576 6.02545C25.95 6.01453 26.3859 5.9604 26.5139 6.11989C26.3266 6.3044 25.9516 6.23583 25.6982 6.23058L25.7576 6.02545Z" fill="#18181E"/>
<path d="M22.7869 23.9199C22.9854 23.9883 23.302 24.0476 23.5148 24.0941C23.366 24.1921 23.2337 24.275 23.0479 24.2281C21.3748 23.7604 18.3661 23.615 16.747 24.1608C12.4568 25.6342 11.0009 31.6673 10.2999 35.6504C10.1849 36.32 10.0972 36.9941 10.0367 37.6709C10.0085 37.9588 9.97376 38.896 9.80664 39.0737L9.70641 38.9745C9.61528 38.7282 9.93932 36.1296 10.0364 35.6928C10.1948 35.0078 10.2668 34.2504 10.4401 33.546C11.4863 29.2931 13.0743 24.4314 17.9757 23.6232C18.404 22.4534 18.6133 21.4377 18.1351 20.2422C17.8052 20.0529 17.5208 19.8737 17.2068 19.6624C15.5011 18.5147 14.2595 15.8788 15.5937 14.0267C15.0829 13.7603 14.7211 13.5663 14.4188 13.028C14.1368 12.534 14.065 11.9475 14.2197 11.4001C14.3876 10.8116 14.7856 10.3155 15.3237 10.024C16.626 9.30474 17.9106 9.84927 18.5736 11.1135C20.3714 10.4026 22.3968 10.5635 24.0474 11.6132C25.287 12.4015 25.3189 13.3368 24.5376 14.4804C24.7446 15.0884 24.886 15.5151 25.033 16.1438C25.9221 16.3833 25.7636 16.729 25.189 17.2487C25.5152 19.4799 24.3772 20.8661 22.2595 21.3904C22.3363 22.4258 22.4984 22.9287 22.7869 23.9199ZM24.3509 14.7554C23.9505 15.0742 23.7969 15.0983 23.3117 15.2579C23.2082 15.466 23.069 15.786 22.9161 15.9469C22.6303 16.02 21.3925 14.6836 20.929 15.335C20.7903 15.53 20.8206 16.1131 20.9016 16.342C21.1457 17.0749 21.7787 17.4596 22.3951 17.8274C21.6534 19.4588 19.9978 19.879 18.3862 20.2252C18.7136 21.0902 18.7432 21.7806 18.5316 22.6982C18.4744 22.9463 18.3094 23.3348 18.2957 23.568C18.4087 23.6125 18.4409 23.6016 18.5663 23.594C19.8884 23.4723 21.216 23.6487 22.5227 23.8439C22.2174 22.9238 22.0492 22.1927 22.0208 21.2283C23.2274 20.8573 24.3843 20.3404 24.8558 19.0462C24.9248 18.8565 24.9991 18.7389 24.9385 18.544C24.7363 18.372 24.4511 18.5039 24.2478 18.3145L24.2561 18.202C24.4451 18.1046 24.7491 18.275 25.0084 18.3205C25.0464 17.96 24.9832 17.4692 24.9388 17.1011C25.1548 16.9552 25.4638 16.8063 25.3531 16.5107C25.1991 16.3688 25.0293 16.3678 24.8206 16.3365C24.7145 15.9574 24.5342 15.0303 24.3509 14.7554Z" fill="black"/>
<path d="M23.3129 15.2525C23.7981 15.0929 23.9518 15.0688 24.3521 14.75C24.5354 15.0249 24.7157 15.952 24.8218 16.3312C25.0305 16.3624 25.2003 16.3635 25.3544 16.5054C25.465 16.8009 25.156 16.9498 24.94 17.0957C24.9844 17.4638 25.0476 17.9546 25.0096 18.3151C24.7504 18.2696 24.4463 18.0992 24.2573 18.1967L24.249 18.3091C24.4523 18.4985 24.7376 18.3666 24.9397 18.5386C25.0003 18.7335 24.9261 18.8511 24.857 19.0408C24.3855 20.3351 23.2286 20.8519 22.0221 21.2229C22.0504 22.1873 22.2186 22.9185 22.5239 23.8385C21.2172 23.6433 19.8897 23.4669 18.5675 23.5886C18.4421 23.5962 18.4099 23.6071 18.2969 23.5626C18.3107 23.3294 18.4756 22.9409 18.5328 22.6928C18.7444 21.7753 18.7148 21.0848 18.3874 20.2198C19.999 19.8736 21.6546 19.4534 22.3963 17.8221C21.78 17.4543 21.1469 17.0695 20.9028 16.3366C20.8218 16.1078 20.7915 15.5246 20.9302 15.3296C21.3937 14.6782 22.6316 16.0146 22.9173 15.9415C23.0702 15.7806 23.2095 15.4606 23.3129 15.2525ZM23.9866 15.6484C23.9251 15.7903 23.8967 15.8355 23.906 15.9946C23.9884 16.1282 23.9673 16.1116 24.1546 16.1677C24.2088 16.0229 24.2361 15.9743 24.2185 15.8161C24.1362 15.6892 24.1622 15.7025 23.9866 15.6484Z" fill="#FEFEFE"/>
<path d="M24.1536 16.1755C23.9663 16.1194 23.9875 16.136 23.905 16.0024C23.8958 15.8433 23.9242 15.7981 23.9856 15.6562C24.1612 15.7103 24.1353 15.6971 24.2175 15.8239C24.2351 15.9822 24.2079 16.0307 24.1536 16.1755Z" fill="black"/>
<path d="M33.2155 24.5368C33.4732 24.5443 33.921 24.5364 34.1413 24.6241L34.1439 24.6966L34.0991 24.7165L34.1151 24.8464C34.027 24.7317 34.1157 24.6928 34.0053 24.6463L33.9236 24.7406C34.0019 24.9167 34.0056 24.8579 33.97 25.026C33.9511 24.9786 33.8997 24.8134 33.851 24.8085C32.556 24.6785 31.2242 24.7976 29.9176 24.7044C29.9023 25.2991 29.912 29.2442 30.0232 29.6143C30.2628 30.4113 32.5867 34.7697 32.4984 35.0955L32.4476 35.1416C32.193 35.0193 31.8151 34.0093 31.6753 33.7105C31.2545 32.8046 30.8225 31.9041 30.3793 31.0091C30.1165 30.1791 28.2051 26.805 28.1807 26.3235C28.22 26.3188 28.282 26.3221 28.3236 26.3227C28.5656 26.5216 29.4456 28.5541 29.7327 29.0205C29.7569 28.3391 29.5372 24.8635 29.7674 24.562C29.9124 24.4732 30.1218 24.5018 30.2978 24.5075C30.1737 22.9735 30.2469 21.4314 30.7762 19.9525C30.9416 19.4902 31.9202 16.2327 32.7655 17.2991C32.9634 17.5489 32.4608 19.3159 32.3545 19.7433C32.9031 19.8231 33.5753 20.0163 34.0335 20.3076C34.5781 20.6539 34.345 21.0272 34.2927 21.5081C34.2726 21.6928 34.3364 21.9929 34.3062 22.2268C34.1889 23.1338 33.7751 23.8356 33.2155 24.5368ZM32.3051 17.2823C31.3757 18.3796 30.6213 21.0491 30.5146 22.4954C30.4673 23.1358 30.5075 23.8477 30.5448 24.4948C31.1392 24.5018 32.3827 24.543 32.9168 24.4721C33.6487 23.7589 34.061 22.8582 34.0943 21.8316C33.7733 22.1757 33.458 22.4117 32.9863 22.1612C32.6222 21.6361 32.8525 21.8417 32.2892 21.657C32.0993 21.5947 31.5485 20.7145 31.86 20.4559C32.0756 20.5873 32.1781 21.6607 32.8303 21.5157C33.2509 21.4221 33.0366 20.9125 33.1967 20.6883C33.3489 20.6876 33.2978 20.6661 33.3951 20.7577C33.47 21.187 32.9603 21.6248 33.1325 21.9515C33.5827 22.1492 33.8676 21.742 34.0449 21.39C34.5817 20.3247 32.8275 20.0391 32.0848 19.9477C32.154 19.4116 32.6954 17.667 32.5061 17.3592C32.4149 17.3034 32.4086 17.2948 32.3051 17.2823Z" fill="#18181E"/>
<path d="M34.1297 21.8434L34.0828 22.0778L33.5673 22.5699H33.0752C32.8643 22.5777 32.4284 22.5886 32.3722 22.5699C32.3019 22.5464 31.7864 22.0778 31.7161 21.8434C31.6458 21.6091 31.3411 21.3513 31.3646 21.1873C31.3833 21.0561 31.4817 20.6327 31.5286 20.4375L31.9035 20.2031L33.3564 20.3672L34.0359 20.6718C34.0359 20.6718 34.1765 20.9764 34.1765 21.1639C34.1765 21.2832 34.1531 21.4685 34.1531 21.4685L34.1297 21.8434Z" fill="white" stroke="black" stroke-width="0.0468659"/>
<path d="M30.5449 24.4937C30.5075 23.8466 30.4674 23.1348 30.5146 22.4943C30.6214 21.048 31.3757 18.3785 32.3051 17.2812C32.4086 17.2937 32.4149 17.3023 32.5061 17.3582C32.6955 17.6659 32.154 19.4106 32.0849 19.9466C32.8276 20.038 34.5817 20.3236 34.0449 21.389C33.8676 21.741 33.5827 22.1481 33.1325 21.9504C32.9603 21.6238 33.47 21.1859 33.3951 20.7566C33.2979 20.6651 33.3489 20.6866 33.1967 20.6872C33.0367 20.9114 33.2509 21.4211 32.8304 21.5146C32.1781 21.6597 32.0756 20.5862 31.86 20.4549C31.5485 20.7134 32.0994 21.5937 32.2893 21.656C32.8525 21.8406 32.6222 21.635 32.9864 22.1601C33.458 22.4106 33.7734 22.1746 34.0944 21.8306C34.061 22.8571 33.6487 23.7578 32.9168 24.471C32.3827 24.542 31.1393 24.5007 30.5449 24.4937Z" fill="#FEFEFE"/>
<path d="M16.748 24.163C18.3672 23.6172 21.3759 23.7627 23.049 24.2304C22.6982 24.7028 20.3855 25.0446 19.7724 25.0067C18.9233 24.9541 17.4106 24.7418 16.748 24.163Z" fill="#FEFEFE"/>
<path d="M23.5144 24.099C25.3811 23.6061 26.6832 24.141 27.7954 25.7144C27.8746 25.8264 28.1137 26.2795 28.1803 26.3306C28.2047 26.8121 30.1161 30.1862 30.379 31.0162C29.4389 33.1199 27.3776 34.1146 25.1373 34.062C24.3562 32.4512 23.5168 30.8703 22.7942 29.2319C22.7598 29.1539 22.6987 29.0912 22.6185 29.0626L22.5436 29.0958C22.4803 29.3822 22.6199 29.9989 22.661 30.3136C23.1498 34.0581 25.2648 38.7108 29.1493 39.9435C29.0782 40.1052 29.2719 43.1265 29.3535 43.4174C29.3647 43.599 29.3893 43.8022 29.4073 43.9851L14.5317 44.0016C12.9488 44.0048 11.3392 43.9734 9.76128 43.9998C9.75556 42.2922 9.6629 40.8316 9.80622 39.0786C9.97335 38.9009 10.0081 37.9636 10.0363 37.6757C10.0967 36.999 10.1845 36.3249 10.2995 35.6553C11.0005 31.6722 12.4564 25.6391 16.7466 24.1657C17.4091 24.7444 18.9218 24.9568 19.771 25.0093C20.384 25.0473 22.6967 24.7054 23.0475 24.233C23.2333 24.2799 23.3656 24.197 23.5144 24.099Z" fill="#801C1E"/>
<path d="M34.142 24.625C34.3919 27.3962 34.6185 30.1695 34.8218 32.9445C34.8721 33.6337 34.921 34.3283 34.9706 35.0156C35.0353 35.9128 35.1285 36.7199 34.7827 37.5754C34.5964 38.0362 34.4284 38.3638 34.1108 38.7498C32.9475 40.1637 30.8295 40.6516 29.1504 39.9374C25.1384 38.038 24.7481 34.0558 22.6621 30.3074C22.6196 30.0033 22.4813 29.376 22.5447 29.0896L22.6196 29.0565C22.6997 29.085 22.7609 29.1477 22.7953 29.2257C23.5178 30.8642 24.3573 32.445 25.1384 34.0558C25.3488 34.5417 25.732 35.2682 25.9871 35.7629C26.4223 36.6063 26.8948 37.8096 27.4873 38.5047C28.2389 39.3731 29.3012 39.9117 30.4458 40.0047C32.9958 40.1954 35.0034 38.2854 34.7623 35.6775C34.647 34.4309 34.5868 33.0875 34.4853 31.8266L34.142 27.3716C34.1059 26.9498 33.9383 25.4002 33.9674 25.0618L33.9707 25.0269C34.0063 24.8589 34.0026 24.9176 33.9243 24.7416L34.006 24.6472C34.1164 24.6937 34.0277 24.7326 34.1158 24.8473L34.0998 24.7175L34.1446 24.6975L34.142 24.625Z" fill="url(#paint0_linear_25_888)"/>
<path d="M29.9185 24.7031C31.2252 24.7963 32.5569 24.6772 33.852 24.8073C33.9006 24.8122 33.952 24.9773 33.9709 25.0247L33.9677 25.0596C33.9386 25.398 34.1061 26.9476 34.1422 27.3694L34.4856 31.8244C34.5871 33.0853 34.6473 34.4287 34.7625 35.6753C35.0037 38.2832 32.996 40.1932 30.4461 40.0025C29.3015 39.9095 28.2391 39.3709 27.4875 38.5025C26.8951 37.8074 26.4226 36.6041 25.9874 35.7607C25.7322 35.266 25.3491 34.5395 25.1387 34.0536C27.379 34.1062 29.4403 33.1115 30.3803 31.0078C30.8234 31.9029 31.2555 32.8034 31.6762 33.7092C31.8161 34.0081 32.194 35.0181 32.4486 35.1404L32.4993 35.0942C32.5876 34.7684 30.2637 30.41 30.0242 29.6131C29.913 29.2429 29.9032 25.2979 29.9185 24.7031Z" fill="#FEFEFE"/>
<path d="M35.377 27.6763L35.786 27.5L36.0523 27.9849C35.9212 27.973 35.5133 27.747 35.377 27.6763Z" fill="#FEFEFE"/>
</g>
<defs>
<linearGradient id="paint0_linear_25_888" x1="22.4636" y1="31.9912" x2="35.0872" y2="32.5243" gradientUnits="userSpaceOnUse">
<stop/>
<stop offset="1" stop-color="#181722"/>
</linearGradient>
<clipPath id="clip0_25_888">
<rect width="45" height="44" fill="white" transform="matrix(-1 0 0 1 45 0)"/>
</clipPath>
</defs>
</svg>
