<svg width="460" height="78" viewBox="0 0 460 78" fill="none" xmlns="http://www.w3.org/2000/svg">
<path d="M94.2931 58V14.4583H122.187V21.0703H102.181V32.8912H120.274V39.5033H102.181V58H94.2931ZM126.769 58V25.3437H134.232V30.7864H134.572C135.167 28.9013 136.188 27.4485 137.633 26.428C139.093 25.3933 140.759 24.876 142.629 24.876C143.055 24.876 143.53 24.8972 144.054 24.9398C144.593 24.9681 145.039 25.0177 145.393 25.0886V32.1684C145.067 32.055 144.55 31.9558 143.841 31.8707C143.147 31.7715 142.474 31.7219 141.822 31.7219C140.418 31.7219 139.157 32.0266 138.037 32.6361C136.932 33.2314 136.06 34.0606 135.422 35.1236C134.784 36.1866 134.465 37.4127 134.465 38.8017V58H126.769ZM161.823 58.6378C158.549 58.6378 155.721 57.9575 153.34 56.5968C150.973 55.2219 149.152 53.2801 147.876 50.7714C146.6 48.2485 145.963 45.2791 145.963 41.8632C145.963 38.504 146.6 35.5559 147.876 33.0188C149.166 30.4675 150.966 28.4832 153.276 27.0658C155.586 25.6343 158.301 24.9185 161.419 24.9185C163.432 24.9185 165.331 25.2445 167.117 25.8965C168.917 26.5343 170.504 27.5265 171.879 28.873C173.268 30.2195 174.36 31.9345 175.153 34.018C175.947 36.0874 176.344 38.5536 176.344 41.4167V43.7767H149.577V38.5891H168.966C168.952 37.115 168.633 35.8039 168.01 34.6559C167.386 33.4936 166.514 32.5794 165.395 31.9132C164.289 31.2471 162.999 30.914 161.525 30.914C159.952 30.914 158.57 31.2967 157.379 32.0621C156.189 32.8133 155.26 33.8054 154.594 35.0386C153.942 36.2575 153.609 37.5969 153.595 39.0568V43.5853C153.595 45.4846 153.942 47.1146 154.637 48.4753C155.331 49.8218 156.302 50.8564 157.55 51.5793C158.797 52.288 160.257 52.6423 161.929 52.6423C163.049 52.6423 164.062 52.4864 164.969 52.1746C165.877 51.8486 166.663 51.3738 167.329 50.7501C167.996 50.1265 168.499 49.354 168.839 48.4327L176.025 49.2406C175.571 51.1399 174.707 52.7982 173.431 54.2156C172.17 55.6188 170.554 56.7102 168.584 57.4897C166.614 58.2551 164.36 58.6378 161.823 58.6378ZM188.755 38.8655V58H181.059V25.3437H188.415V30.8927H188.798C189.549 29.0643 190.747 27.6115 192.391 26.5343C194.049 25.4571 196.097 24.9185 198.535 24.9185C200.789 24.9185 202.752 25.4004 204.424 26.3642C206.111 27.328 207.415 28.7242 208.336 30.5526C209.272 32.381 209.732 34.5992 209.718 37.2071V58H202.022V38.3977C202.022 36.215 201.455 34.507 200.321 33.2739C199.201 32.0408 197.649 31.4242 195.665 31.4242C194.318 31.4242 193.121 31.7219 192.072 32.3172C191.037 32.8983 190.222 33.7417 189.627 34.8472C189.046 35.9528 188.755 37.2922 188.755 38.8655ZM229.991 58.6378C226.731 58.6378 223.931 57.922 221.593 56.4905C219.268 55.059 217.475 53.0817 216.214 50.5588C214.966 48.0217 214.343 45.1019 214.343 41.7994C214.343 38.4828 214.981 35.5559 216.256 33.0188C217.532 30.4675 219.332 28.4832 221.656 27.0658C223.995 25.6343 226.759 24.9185 229.948 24.9185C232.599 24.9185 234.944 25.4075 236.985 26.3855C239.041 27.3493 240.678 28.7171 241.897 30.4888C243.115 32.2463 243.81 34.3015 243.98 36.6544H236.624C236.326 35.0811 235.618 33.77 234.498 32.7211C233.392 31.6581 231.911 31.1266 230.054 31.1266C228.481 31.1266 227.099 31.5518 225.909 32.4022C224.718 33.2385 223.79 34.4433 223.123 36.0165C222.471 37.5898 222.145 39.4749 222.145 41.6719C222.145 43.8971 222.471 45.8106 223.123 47.4122C223.775 48.9997 224.69 50.2257 225.866 51.0903C227.057 51.9407 228.453 52.3659 230.054 52.3659C231.188 52.3659 232.202 52.1533 233.095 51.7281C234.002 51.2887 234.76 50.658 235.37 49.8359C235.979 49.0139 236.397 48.0146 236.624 46.8382H243.98C243.796 49.1485 243.115 51.1966 241.939 52.9825C240.763 54.7542 239.161 56.1432 237.134 57.1496C235.107 58.1417 232.726 58.6378 229.991 58.6378ZM256.2 38.8655V58H248.504V14.4583H256.03V30.8927H256.413C257.178 29.0501 258.361 27.5973 259.963 26.5343C261.579 25.4571 263.634 24.9185 266.129 24.9185C268.397 24.9185 270.374 25.3933 272.06 26.343C273.747 27.2926 275.051 28.6816 275.972 30.51C276.908 32.3385 277.376 34.5708 277.376 37.2071V58H269.679V38.3977C269.679 36.2008 269.112 34.4929 267.978 33.2739C266.859 32.0408 265.285 31.4242 263.259 31.4242C261.898 31.4242 260.679 31.7219 259.602 32.3172C258.539 32.8983 257.702 33.7417 257.093 34.8472C256.498 35.9528 256.2 37.2922 256.2 38.8655ZM288.166 58.4677C286.876 58.4677 285.77 58.0142 284.849 57.1071C283.928 56.1999 283.474 55.0944 283.488 53.7904C283.474 52.5148 283.928 51.4234 284.849 50.5163C285.77 49.6091 286.876 49.1556 288.166 49.1556C289.413 49.1556 290.497 49.6091 291.419 50.5163C292.354 51.4234 292.829 52.5148 292.843 53.7904C292.829 54.655 292.602 55.4416 292.163 56.1503C291.738 56.859 291.171 57.426 290.462 57.8512C289.767 58.2622 289.002 58.4677 288.166 58.4677ZM322.996 26.428C322.798 24.5713 321.962 23.1255 320.488 22.0908C319.028 21.0562 317.128 20.5388 314.79 20.5388C313.146 20.5388 311.735 20.7869 310.559 21.2829C309.382 21.779 308.482 22.4523 307.859 23.3027C307.235 24.1531 306.916 25.124 306.902 26.2154C306.902 27.1225 307.108 27.9092 307.519 28.5753C307.944 29.2415 308.518 29.8084 309.241 30.2762C309.964 30.7297 310.764 31.1124 311.643 31.4242C312.522 31.7361 313.408 31.9983 314.301 32.2109L318.383 33.2314C320.027 33.6141 321.607 34.1314 323.124 34.7834C324.655 35.4354 326.022 36.2575 327.227 37.2497C328.446 38.2418 329.41 39.4395 330.119 40.8427C330.827 42.2459 331.182 43.89 331.182 45.7752C331.182 48.3264 330.53 50.573 329.226 52.5148C327.922 54.4424 326.037 55.9519 323.57 57.0433C321.118 58.1205 318.149 58.6591 314.662 58.6591C311.275 58.6591 308.334 58.1347 305.839 57.0858C303.359 56.0369 301.417 54.5062 300.014 52.4935C298.625 50.4808 297.873 48.0288 297.76 45.1373H305.52C305.634 46.6539 306.101 47.9154 306.923 48.9217C307.745 49.9281 308.816 50.6793 310.134 51.1753C311.466 51.6714 312.954 51.9195 314.598 51.9195C316.313 51.9195 317.816 51.6643 319.106 51.1541C320.41 50.6297 321.43 49.9068 322.167 48.9855C322.904 48.05 323.28 46.9587 323.294 45.7114C323.28 44.5775 322.947 43.642 322.295 42.905C321.643 42.1538 320.729 41.5301 319.552 41.034C318.39 40.5238 317.029 40.0702 315.47 39.6734L310.516 38.3977C306.93 37.4764 304.096 36.0803 302.012 34.2094C299.943 32.3243 298.908 29.8226 298.908 26.7044C298.908 24.1389 299.603 21.8924 300.992 19.9648C302.395 18.0372 304.301 16.5418 306.711 15.4788C309.12 14.4016 311.849 13.863 314.896 13.863C317.986 13.863 320.693 14.4016 323.018 15.4788C325.356 16.5418 327.192 18.023 328.524 19.9223C329.856 21.8074 330.544 23.976 330.586 26.428H322.996ZM356.891 44.2657V25.3437H364.588V58H357.125V52.1959H356.785C356.048 54.0243 354.836 55.5196 353.15 56.6818C351.477 57.8441 349.415 58.4252 346.963 58.4252C344.823 58.4252 342.93 57.9504 341.286 57.0008C339.656 56.0369 338.381 54.6408 337.459 52.8124C336.538 50.9698 336.077 48.7446 336.077 46.1366V25.3437H343.774V44.946C343.774 47.0154 344.341 48.6595 345.475 49.8785C346.608 51.0974 348.097 51.7069 349.939 51.7069C351.073 51.7069 352.172 51.4305 353.235 50.8777C354.298 50.3249 355.169 49.5028 355.85 48.4115C356.544 47.3059 356.891 45.924 356.891 44.2657ZM370.706 70.2461V25.3437H378.275V30.7439H378.721C379.118 29.9502 379.678 29.1068 380.401 28.2139C381.124 27.3068 382.102 26.5343 383.335 25.8965C384.568 25.2445 386.141 24.9185 388.055 24.9185C390.578 24.9185 392.852 25.5634 394.879 26.8532C396.92 28.1289 398.536 30.021 399.727 32.5298C400.931 35.0244 401.534 38.0859 401.534 41.7144C401.534 45.3003 400.946 48.3477 399.769 50.8564C398.593 53.3652 396.991 55.2786 394.964 56.5968C392.937 57.915 390.641 58.574 388.076 58.574C386.205 58.574 384.653 58.2622 383.42 57.6386C382.187 57.0149 381.195 56.2637 380.443 55.3849C379.706 54.492 379.132 53.6487 378.721 52.8549H378.402V70.2461H370.706ZM378.253 41.6719C378.253 43.7837 378.551 45.6334 379.146 47.2209C379.756 48.8083 380.628 50.0485 381.761 50.9415C382.91 51.8203 384.299 52.2596 385.929 52.2596C387.629 52.2596 389.054 51.8061 390.202 50.899C391.35 49.9777 392.215 48.7233 392.796 47.1358C393.391 45.5342 393.689 43.7129 393.689 41.6719C393.689 39.645 393.398 37.845 392.817 36.2717C392.236 34.6984 391.371 33.4653 390.223 32.5723C389.075 31.6794 387.644 31.2329 385.929 31.2329C384.284 31.2329 382.888 31.6652 381.74 32.5298C380.592 33.3944 379.72 34.6063 379.125 36.1654C378.544 37.7245 378.253 39.56 378.253 41.6719ZM420.786 58.6378C417.512 58.6378 414.684 57.9575 412.303 56.5968C409.936 55.2219 408.114 53.2801 406.839 50.7714C405.563 48.2485 404.925 45.2791 404.925 41.8632C404.925 38.504 405.563 35.5559 406.839 33.0188C408.129 30.4675 409.929 28.4832 412.239 27.0658C414.549 25.6343 417.264 24.9185 420.382 24.9185C422.394 24.9185 424.294 25.2445 426.08 25.8965C427.88 26.5343 429.467 27.5265 430.842 28.873C432.231 30.2195 433.322 31.9345 434.116 34.018C434.91 36.0874 435.307 38.5536 435.307 41.4167V43.7767H408.54V38.5891H427.929C427.915 37.115 427.596 35.8039 426.973 34.6559C426.349 33.4936 425.477 32.5794 424.358 31.9132C423.252 31.2471 421.962 30.914 420.488 30.914C418.915 30.914 417.533 31.2967 416.342 32.0621C415.152 32.8133 414.223 33.8054 413.557 35.0386C412.905 36.2575 412.572 37.5969 412.558 39.0568V43.5853C412.558 45.4846 412.905 47.1146 413.6 48.4753C414.294 49.8218 415.265 50.8564 416.512 51.5793C417.76 52.288 419.22 52.6423 420.892 52.6423C422.012 52.6423 423.025 52.4864 423.932 52.1746C424.839 51.8486 425.626 51.3738 426.292 50.7501C426.958 50.1265 427.462 49.354 427.802 48.4327L434.988 49.2406C434.534 51.1399 433.67 52.7982 432.394 54.2156C431.133 55.6188 429.517 56.7102 427.547 57.4897C425.576 58.2551 423.323 58.6378 420.786 58.6378ZM440.022 58V25.3437H447.484V30.7864H447.824C448.42 28.9013 449.44 27.4485 450.886 26.428C452.346 25.3933 454.011 24.876 455.882 24.876C456.307 24.876 456.782 24.8972 457.307 24.9398C457.845 24.9681 458.292 25.0177 458.646 25.0886V32.1684C458.32 32.055 457.803 31.9558 457.094 31.8707C456.399 31.7715 455.726 31.7219 455.074 31.7219C453.671 31.7219 452.41 32.0266 451.29 32.6361C450.184 33.2314 449.313 34.0606 448.675 35.1236C448.037 36.1866 447.718 37.4127 447.718 38.8017V58H440.022Z" fill="white"/>
<path d="M67.9072 5.34814C73.3652 5.3483 77.8311 9.81235 77.8311 15.2681V57.1802C77.8311 62.6359 73.3652 67.0999 67.9072 67.1001H59.5195L60.1387 74.564C60.1386 78.6544 58.2729 78.6741 54.9268 76.7974L35.4521 67.1001H9.92383C4.46572 67.1001 0 62.636 0 57.1802V15.2681C0 9.81228 4.46965 5.34819 9.92773 5.34814H67.9072ZM37.0469 46.2437C37.0469 47.7751 35.0782 50.5088 32.0146 50.6177C32.0146 52.4772 35.6099 53.061 36.8574 52.2593C36.8557 52.2964 36.7334 55.1081 38.9072 55.9771C41.0811 55.1079 40.9587 52.2961 40.957 52.2593C42.2045 53.0611 45.7998 52.4773 45.7998 50.6177C42.7365 50.5089 40.7676 47.7751 40.7676 46.2437H37.0469ZM28.5146 45.4565H49.3018V42.9419H28.5146V45.4565ZM28.8398 28.6157C21.3018 26.9294 18.1191 37.5833 24.0264 41.0825C24.5739 33.2092 32.9971 33.7559 32.9971 42.103H35.6221C35.6221 42.103 36.1704 30.2565 28.8398 28.6157ZM38.9082 13.1382C36.5389 14.3755 33.2793 17.6019 33.2793 22.1714C33.2794 27.3119 37.2666 29.129 37.2666 42.103H40.5488C40.5488 29.129 44.5351 27.3119 44.5352 22.1714C44.5352 17.602 41.2774 14.3755 38.9082 13.1382ZM53.7891 41.0825C59.697 37.5833 56.5135 26.9295 48.9756 28.6157C41.6457 30.2565 42.1924 42.103 42.1924 42.103H44.8184C44.8184 33.7559 53.2416 33.2092 53.7891 41.0825Z" fill="white"/>
</svg>
