<svg width="461" height="78" viewBox="0 0 461 78" fill="none" xmlns="http://www.w3.org/2000/svg">
<path d="M94.6938 58V14.3636H122.648V20.9901H102.599V32.8366H120.731V39.4631H102.599V58H94.6938ZM127.24 58V25.2727H134.719V30.7273H135.06C135.657 28.8381 136.679 27.3821 138.128 26.3594C139.591 25.3224 141.26 24.804 143.135 24.804C143.561 24.804 144.037 24.8253 144.563 24.8679C145.103 24.8963 145.55 24.946 145.905 25.017V32.1122C145.578 31.9986 145.06 31.8991 144.35 31.8139C143.654 31.7145 142.979 31.6648 142.326 31.6648C140.919 31.6648 139.655 31.9702 138.533 32.581C137.425 33.1776 136.551 34.0085 135.912 35.0739C135.273 36.1392 134.953 37.3679 134.953 38.7599V58H127.24ZM162.37 58.6392C159.089 58.6392 156.255 57.9574 153.869 56.5938C151.497 55.2159 149.672 53.2699 148.393 50.7557C147.115 48.2273 146.476 45.2514 146.476 41.8281C146.476 38.4616 147.115 35.5071 148.393 32.9645C149.686 30.4077 151.49 28.419 153.805 26.9986C156.12 25.5639 158.841 24.8466 161.966 24.8466C163.983 24.8466 165.886 25.1733 167.676 25.8267C169.48 26.4659 171.071 27.4602 172.449 28.8097C173.841 30.1591 174.934 31.8778 175.73 33.9659C176.525 36.0398 176.923 38.5114 176.923 41.3807V43.7457H150.098V38.5469H169.53C169.515 37.0696 169.196 35.7557 168.571 34.6051C167.946 33.4403 167.072 32.5241 165.95 31.8565C164.842 31.1889 163.549 30.8551 162.072 30.8551C160.495 30.8551 159.111 31.2386 157.917 32.0057C156.724 32.7585 155.794 33.7528 155.126 34.9886C154.473 36.2102 154.139 37.5526 154.125 39.0156V43.554C154.125 45.4574 154.473 47.0909 155.169 48.4545C155.865 49.804 156.838 50.8409 158.088 51.5653C159.338 52.2756 160.801 52.6307 162.477 52.6307C163.599 52.6307 164.615 52.4744 165.524 52.1619C166.433 51.8352 167.221 51.3594 167.889 50.7344C168.557 50.1094 169.061 49.3352 169.402 48.4119L176.603 49.2216C176.149 51.125 175.282 52.7869 174.004 54.2074C172.74 55.6136 171.12 56.7074 169.146 57.4886C167.172 58.2557 164.913 58.6392 162.37 58.6392ZM189.361 38.8239V58H181.648V25.2727H189.02V30.8338H189.404C190.157 29.0014 191.357 27.5455 193.005 26.4659C194.667 25.3864 196.719 24.8466 199.162 24.8466C201.421 24.8466 203.388 25.3295 205.064 26.2955C206.755 27.2614 208.062 28.6605 208.985 30.4929C209.922 32.3253 210.384 34.5483 210.37 37.1619V58H202.657V38.3551C202.657 36.1676 202.089 34.456 200.952 33.2202C199.83 31.9844 198.275 31.3665 196.286 31.3665C194.937 31.3665 193.736 31.6648 192.685 32.2614C191.648 32.8437 190.831 33.6889 190.235 34.7969C189.652 35.9048 189.361 37.2472 189.361 38.8239ZM230.686 58.6392C227.419 58.6392 224.614 57.9219 222.27 56.4872C219.941 55.0526 218.144 53.071 216.879 50.5426C215.629 48 215.004 45.0739 215.004 41.7642C215.004 38.4403 215.644 35.5071 216.922 32.9645C218.2 30.4077 220.004 28.419 222.334 26.9986C224.678 25.5639 227.448 24.8466 230.644 24.8466C233.3 24.8466 235.651 25.3366 237.696 26.3168C239.756 27.2827 241.397 28.6534 242.618 30.429C243.84 32.1903 244.536 34.25 244.706 36.608H237.334C237.036 35.0312 236.325 33.7173 235.203 32.6662C234.095 31.6009 232.611 31.0682 230.75 31.0682C229.173 31.0682 227.789 31.4943 226.595 32.3466C225.402 33.1847 224.472 34.392 223.804 35.9688C223.151 37.5455 222.824 39.4347 222.824 41.6364C222.824 43.8665 223.151 45.7841 223.804 47.3892C224.458 48.9801 225.374 50.2088 226.553 51.0753C227.746 51.9276 229.145 52.3537 230.75 52.3537C231.887 52.3537 232.902 52.1406 233.797 51.7145C234.706 51.2741 235.466 50.642 236.077 49.8182C236.688 48.9943 237.107 47.9929 237.334 46.8139H244.706C244.522 49.1293 243.84 51.1818 242.661 52.9716C241.482 54.7472 239.877 56.1392 237.845 57.1477C235.814 58.142 233.428 58.6392 230.686 58.6392ZM256.953 38.8239V58H249.24V14.3636H256.782V30.8338H257.166C257.933 28.9872 259.119 27.5312 260.724 26.4659C262.343 25.3864 264.403 24.8466 266.903 24.8466C269.176 24.8466 271.157 25.3224 272.848 26.2741C274.538 27.2259 275.845 28.6179 276.768 30.4503C277.706 32.2827 278.174 34.5199 278.174 37.1619V58H270.461V38.3551C270.461 36.1534 269.893 34.4418 268.757 33.2202C267.635 31.9844 266.058 31.3665 264.027 31.3665C262.663 31.3665 261.441 31.6648 260.362 32.2614C259.296 32.8437 258.458 33.6889 257.848 34.7969C257.251 35.9048 256.953 37.2472 256.953 38.8239ZM288.988 58.4688C287.695 58.4688 286.587 58.0142 285.664 57.1051C284.741 56.196 284.286 55.0881 284.3 53.7812C284.286 52.5028 284.741 51.4091 285.664 50.5C286.587 49.5909 287.695 49.1364 288.988 49.1364C290.238 49.1364 291.325 49.5909 292.248 50.5C293.185 51.4091 293.661 52.5028 293.675 53.7812C293.661 54.6477 293.434 55.4361 292.994 56.1463C292.567 56.8565 291.999 57.4247 291.289 57.8509C290.593 58.2628 289.826 58.4688 288.988 58.4688ZM323.894 26.3594C323.695 24.4986 322.857 23.0497 321.38 22.0128C319.917 20.9759 318.014 20.4574 315.67 20.4574C314.022 20.4574 312.609 20.706 311.43 21.2031C310.251 21.7003 309.349 22.375 308.724 23.2273C308.099 24.0795 307.779 25.0526 307.765 26.1463C307.765 27.0554 307.971 27.8437 308.383 28.5114C308.809 29.179 309.384 29.7472 310.109 30.2159C310.833 30.6705 311.636 31.054 312.516 31.3665C313.397 31.679 314.285 31.9418 315.18 32.1548L319.271 33.1776C320.918 33.5611 322.502 34.0795 324.022 34.733C325.556 35.3864 326.927 36.2102 328.134 37.2045C329.356 38.1989 330.322 39.3991 331.032 40.8054C331.742 42.2116 332.097 43.8594 332.097 45.7486C332.097 48.3054 331.444 50.5568 330.137 52.5028C328.83 54.4347 326.941 55.9474 324.47 57.0412C322.012 58.1207 319.036 58.6605 315.542 58.6605C312.147 58.6605 309.2 58.1349 306.7 57.0838C304.214 56.0327 302.268 54.4986 300.862 52.4815C299.47 50.4645 298.717 48.0071 298.603 45.1094H306.38C306.494 46.6293 306.962 47.8935 307.786 48.902C308.61 49.9105 309.683 50.6634 311.004 51.1605C312.339 51.6577 313.83 51.9062 315.478 51.9062C317.197 51.9062 318.702 51.6506 319.995 51.1392C321.302 50.6136 322.325 49.8892 323.063 48.9659C323.802 48.0284 324.178 46.9347 324.193 45.6847C324.178 44.5483 323.845 43.6108 323.191 42.8722C322.538 42.1193 321.622 41.4943 320.443 40.9972C319.278 40.4858 317.914 40.0312 316.352 39.6335L311.387 38.3551C307.793 37.4318 304.952 36.0327 302.864 34.1577C300.791 32.2685 299.754 29.7614 299.754 26.6364C299.754 24.0653 300.45 21.8139 301.842 19.8821C303.248 17.9503 305.158 16.4517 307.573 15.3864C309.988 14.3068 312.722 13.767 315.776 13.767C318.873 13.767 321.586 14.3068 323.916 15.3864C326.259 16.4517 328.099 17.9361 329.434 19.8395C330.769 21.7287 331.458 23.902 331.501 26.3594H323.894ZM357.863 44.2358V25.2727H365.576V58H358.097V52.1832H357.757C357.018 54.0156 355.803 55.5142 354.113 56.679C352.437 57.8437 350.37 58.4261 347.913 58.4261C345.768 58.4261 343.872 57.9503 342.224 56.9986C340.59 56.0327 339.312 54.6335 338.389 52.8011C337.465 50.9545 337.004 48.7244 337.004 46.1108V25.2727H344.717V44.9176C344.717 46.9915 345.285 48.6392 346.421 49.8608C347.558 51.0824 349.049 51.6932 350.896 51.6932C352.032 51.6932 353.133 51.4162 354.198 50.8622C355.264 50.3082 356.137 49.4844 356.819 48.3906C357.515 47.2827 357.863 45.8977 357.863 44.2358ZM371.708 70.2727V25.2727H379.293V30.6847H379.74C380.138 29.8892 380.699 29.044 381.423 28.1491C382.148 27.2401 383.128 26.4659 384.364 25.8267C385.6 25.1733 387.176 24.8466 389.094 24.8466C391.622 24.8466 393.902 25.4929 395.933 26.7855C397.979 28.0639 399.598 29.9602 400.791 32.4744C401.999 34.9744 402.602 38.0426 402.602 41.679C402.602 45.2727 402.013 48.3267 400.834 50.8409C399.655 53.3551 398.05 55.2727 396.019 56.5938C393.987 57.9148 391.686 58.5753 389.115 58.5753C387.24 58.5753 385.685 58.2628 384.449 57.6378C383.213 57.0128 382.219 56.2599 381.466 55.3793C380.727 54.4844 380.152 53.6392 379.74 52.8438H379.421V70.2727H371.708ZM379.271 41.6364C379.271 43.7528 379.57 45.6065 380.166 47.1974C380.777 48.7884 381.651 50.0312 382.787 50.9261C383.938 51.8068 385.33 52.2472 386.963 52.2472C388.668 52.2472 390.095 51.7926 391.246 50.8835C392.396 49.9602 393.263 48.7031 393.845 47.1122C394.442 45.5071 394.74 43.6818 394.74 41.6364C394.74 39.6051 394.449 37.8011 393.867 36.2244C393.284 34.6477 392.418 33.4119 391.267 32.517C390.117 31.6222 388.682 31.1747 386.963 31.1747C385.316 31.1747 383.916 31.608 382.766 32.4744C381.615 33.3409 380.742 34.5554 380.145 36.1179C379.563 37.6804 379.271 39.5199 379.271 41.6364ZM421.896 58.6392C418.615 58.6392 415.781 57.9574 413.395 56.5938C411.023 55.2159 409.197 53.2699 407.919 50.7557C406.641 48.2273 406.001 45.2514 406.001 41.8281C406.001 38.4616 406.641 35.5071 407.919 32.9645C409.212 30.4077 411.016 28.419 413.331 26.9986C415.646 25.5639 418.366 24.8466 421.491 24.8466C423.508 24.8466 425.412 25.1733 427.202 25.8267C429.006 26.4659 430.597 27.4602 431.974 28.8097C433.366 30.1591 434.46 31.8778 435.256 33.9659C436.051 36.0398 436.449 38.5114 436.449 41.3807V43.7457H409.623V38.5469H429.055C429.041 37.0696 428.722 35.7557 428.097 34.6051C427.472 33.4403 426.598 32.5241 425.476 31.8565C424.368 31.1889 423.075 30.8551 421.598 30.8551C420.021 30.8551 418.636 31.2386 417.443 32.0057C416.25 32.7585 415.32 33.7528 414.652 34.9886C413.998 36.2102 413.665 37.5526 413.65 39.0156V43.554C413.65 45.4574 413.998 47.0909 414.695 48.4545C415.391 49.804 416.364 50.8409 417.614 51.5653C418.864 52.2756 420.327 52.6307 422.003 52.6307C423.125 52.6307 424.141 52.4744 425.05 52.1619C425.959 51.8352 426.747 51.3594 427.415 50.7344C428.082 50.1094 428.587 49.3352 428.927 48.4119L436.129 49.2216C435.675 51.125 434.808 52.7869 433.53 54.2074C432.266 55.6136 430.646 56.7074 428.672 57.4886C426.697 58.2557 424.439 58.6392 421.896 58.6392ZM441.174 58V25.2727H448.653V30.7273H448.994C449.59 28.8381 450.613 27.3821 452.062 26.3594C453.525 25.3224 455.194 24.804 457.069 24.804C457.495 24.804 457.971 24.8253 458.496 24.8679C459.036 24.8963 459.484 24.946 459.839 25.017V32.1122C459.512 31.9986 458.994 31.8991 458.283 31.8139C457.587 31.7145 456.913 31.6648 456.259 31.6648C454.853 31.6648 453.589 31.9702 452.467 32.581C451.359 33.1776 450.485 34.0085 449.846 35.0739C449.207 36.1392 448.887 37.3679 448.887 38.7599V58H441.174Z" fill="#010101"/>
<path d="M68.0547 5.3479C73.5246 5.34796 78 9.81203 78 15.2678V57.1799C78 62.6357 73.5246 67.0998 68.0547 67.0999H59.6484L60.2695 74.5637C60.2695 78.6544 58.3994 78.6739 55.0459 76.7971L35.5293 67.0999H9.94531C4.47538 67.0998 0 62.6357 0 57.1799V15.2678C0 9.81205 4.47932 5.348 9.94922 5.3479H68.0547ZM37.1279 46.2444C37.1277 47.7758 35.1547 50.5093 32.085 50.6184C32.0852 52.4778 35.6873 53.0607 36.9375 52.259C36.9375 52.259 36.7992 55.102 38.9922 55.9768C41.185 55.1019 41.0459 52.259 41.0459 52.259C42.2959 53.061 45.8992 52.478 45.8994 50.6184C42.8297 50.5095 40.8567 47.7758 40.8564 46.2444H37.1279ZM28.5762 45.4563H49.4082V42.9417H28.5762V45.4563ZM28.9023 28.6155C21.348 26.9293 18.1582 37.583 24.0781 41.0823C24.627 33.2093 33.0693 33.7559 33.0693 42.1028H35.6992C35.7008 42.0679 36.2379 30.2538 28.9023 28.6155ZM38.9922 13.1379C36.6178 14.3754 33.3516 17.6018 33.3516 22.1711C33.3516 27.3118 37.3477 29.1286 37.3477 42.1028H40.6367C40.6367 29.1286 44.6318 27.3117 44.6318 22.1711C44.6318 17.6016 41.3665 14.3752 38.9922 13.1379ZM53.9062 41.0823C59.8269 37.583 56.6364 26.9292 49.082 28.6155C41.7483 30.2536 42.2824 42.0641 42.2842 42.1028H44.915C44.9151 33.7559 53.3574 33.2093 53.9062 41.0823Z" fill="#010101"/>
</svg>
